<?xml version="1.0" encoding="utf-8"?>
<!-- Generator: Adobe Illustrator 17.0.1, SVG Export Plug-In . SVG Version: 6.00 Build 0)  -->
<!DOCTYPE svg PUBLIC "-//W3C//DTD SVG 1.1//EN" "http://www.w3.org/Graphics/SVG/1.1/DTD/svg11.dtd">
<svg version="1.1" id="Layer_1" xmlns="http://www.w3.org/2000/svg" xmlns:xlink="http://www.w3.org/1999/xlink" x="0px" y="0px"
	 width="142px" height="32px" viewBox="0 0 142 32" enable-background="new 0 0 142 32" xml:space="preserve">
<path fill="#FFFFFF" d="M14.511,3.329c1.027,0.031-0.018,1.055-0.018,1.496c-0.006-0.007-0.012-0.012-0.018-0.018
	C14.332,4.524,14.225,3.526,14.511,3.329 M9.249,3.916c0.009,0.02,0.016,0.038,0.024,0.057c0.139,0.11,0.276,0.22,0.414,0.33
	c0.285,0.342,0.345,0.792,0.769,1.002c0.01-0.024,0.021-0.048,0.031-0.072c0.121-0.743-0.445-1.345-1.202-1.37
	C9.273,3.881,9.261,3.899,9.249,3.916 M13.716,3.902c-0.167,0-0.478,0.298-0.631,0.374c-0.216,0.006-0.433,0.011-0.649,0.018
	c-0.368,0-0.764,0.19-0.847,0.552h0.018c0.048,0.005,0.096,0.01,0.144,0.016c0.005,0,0.012,0,0.017,0.001
	c0.006,0.001,0.011,0.002,0.017,0.002c0.006,0.001,0.01,0.002,0.016,0.002c0.006,0.001,0.011,0.002,0.016,0.002
	c0.35,0.068,0.427,0.517,0.695,0.72c0.251,0.138,0.501,0.276,0.753,0.413c0.012,0.006,0.024,0.012,0.037,0.018
	c0,0,0.3-0.426,0.326-0.48c0.134-0.285,0.306-1.392,0.088-1.657V3.902z M12.689,4.668c-0.036,0.065-0.072,0.131-0.108,0.196h-0.018
	c-0.111,0-0.09-0.206-0.018-0.25C12.593,4.632,12.641,4.65,12.689,4.668 M13.158,5.416c-0.005,0.006-0.012,0.012-0.018,0.018V5.416
	c-0.007-0.012-0.014-0.025-0.02-0.038c0-0.192,0.033-0.491,0.164-0.621V4.74C13.557,4.942,13.367,5.253,13.158,5.416 M15.389,4.146
	c-0.456,0.326-0.487,1.191-0.502,1.504c-0.004,0.068,0.009,0.585,0.009,0.585c-0.01-0.012,0.287-0.098,0.3-0.099
	c0.295-0.023,0.992,0.004,0.976,0.006c0.397-0.114,0.826-0.702,0.831-0.7c0.168-0.235,0.053-0.314-0.079-0.385
	c-0.115-0.035-0.239-0.096-0.46-0.157c-0.231-0.076-0.789-0.193-0.982-0.289c-0.044-0.148-0.08-0.384-0.101-0.449
	C15.384,4.157,15.386,4.152,15.389,4.146 M15.532,5.147c0.1,0.126,0.082,0.315-0.082,0.494c-0.006-0.002,0.005-0.114,0-0.117
	c-0.006-0.073-0.041-0.131-0.046-0.206C15.46,5.157,15.534,5.126,15.532,5.147 M16.47,5.292c-0.004,0.004-0.037,0.051-0.042,0.054
	c-0.15,0.116-0.345,0.349-0.345,0.341c-0.011-0.184-0.024-0.346,0.122-0.44C16.232,5.229,16.381,5.239,16.47,5.292 M18.296,5.216
	c-0.321,0-1.374,0.711-0.938,1.008c0.064,0.044,0.129,0.018,0.183-0.029c0.201-0.198,0.401-0.395,0.601-0.593
	c0.257-0.154,0.547-0.174,0.838-0.261c-0.005-0.018-0.012-0.036-0.017-0.054c0-0.081-0.439-0.117-0.522-0.125
	C18.392,5.18,18.343,5.197,18.296,5.216 M31.054,6.497c0.012,0.018,0.025,0.036,0.036,0.054C31.079,6.533,31.066,6.515,31.054,6.497
	 M9.213,9.987h0.019H9.213z M24.304,16.205c-0.285,0.099-0.57,0.198-0.855,0.297h-0.108v-0.018h-0.018
	c0-0.324,0.682-0.618,0.613-1.104c0-0.056-0.183,0.111-0.207,0.138c-0.477,0.535-1.117,1.126-1.757,1.375v-0.018
	c0.006-0.036,0.011-0.073,0.017-0.11c0.104-0.243,0.584-0.789,0.378-1.048c-0.012-0.005-0.024-0.012-0.037-0.018
	c-0.016,0.02-0.033,0.04-0.05,0.059c-0.436,0.403-0.77,0.919-1.224,1.353c-0.388,0.37-1.373,1.062-1.601,1.489
	c-0.005,0.037-0.011,0.073-0.016,0.11c0.132,0.407,1.416-0.551,1.609-0.684c1.264-0.884,3.674-1.369,5.37-1.018
	c0.782,0.161,1.354,0.43,2.058,0.684v-0.018c-0.002-0.02-0.004-0.042-0.006-0.063c-0.095-0.212-0.454-0.391-0.644-0.492
	c-0.263-0.131-0.527-0.262-0.791-0.393c-0.188-0.066-0.375-0.132-0.565-0.198c-0.018-0.036-0.037-0.072-0.056-0.108
	c0.037-0.265,0.732-0.581,0.571-0.873c-0.038-0.067-0.134,0.014-0.173,0.043c-0.49,0.352-0.997,0.522-1.527,0.785
	c-0.597,0,0.158-0.78,0.18-1.122H25.45c-0.03-0.005-0.061-0.012-0.09-0.018C25.004,15.568,24.731,15.971,24.304,16.205
	 M11.646,16.68h0.036v-0.053c-0.006-0.023-0.012-0.048-0.018-0.071C11.658,16.597,11.652,16.639,11.646,16.68 M36.316,26.186
	c0.03,0.006,0.061,0.012,0.09,0.018C36.376,26.198,36.346,26.192,36.316,26.186 M14.223,1.299c-0.082,0-0.534-0.837-0.594-0.962
	H13.61v0.018c-0.254,0-0.626,1.523-0.775,1.726c-0.126,0-0.44-0.677-0.504-0.783c-0.441,0-0.693,1.232-0.792,1.531v0.018
	c-0.006-0.006-0.012-0.012-0.019-0.018c-0.136-0.154-0.272-0.309-0.408-0.463c-0.255-0.062-0.353,0.955-0.438,1.086
	c-0.006,0.006-0.012,0.012-0.018,0.018c0-0.131-0.997-0.388-1.189-0.356C9.328,3.127,9.189,3.139,9.051,3.151
	c-0.375,0-0.964,0.263-1.117,0.605C7.928,3.774,7.922,3.792,7.916,3.809c0.521,0,0.986,1.384,1.228,1.744
	c0.178,0.264,0.446,0.475,0.7,0.66c0,0.141-0.283,0.292-0.378,0.356C9.388,6.581,9.31,6.592,9.232,6.604
	c-0.648,0-0.759-0.107-1.208-0.445c0-0.119-0.23,0.407-0.244,0.465C7.593,7.347,7.801,8.027,8.31,8.53
	c0.163,0.142,0.326,0.283,0.489,0.424C8.643,9.067,8.486,9.18,8.33,9.293c-0.877,0.577-1.006,1.389-0.922,2.438
	c0.024,0.306,0.033,0.623,0.13,0.89h0.036c0.02-0.015,0.039-0.032,0.059-0.047C8.071,12,8.39,11.618,9.159,11.446
	c0,0.265-0.343,0.55-0.448,0.785c-0.443,0.987-0.371,2.372,0.43,3.113c0.032-0.037,0.064-0.075,0.096-0.112
	c0.187-0.434,0.376-0.819,0.769-1.134h0.018c-0.057,0.215-0.115,0.427-0.172,0.642c-0.014,0.306-0.028,0.613-0.043,0.919
	c-0.006,0.015-0.011,0.029-0.016,0.043c-0.062,0.106-0.228,0.116-0.328,0.159c-0.036,0.006-0.072,0.012-0.108,0.018
	c-0.054,0.007-0.108,0.012-0.162,0.018c-0.246-0.006-0.493-0.012-0.739-0.018c-0.186-0.005-0.373-0.012-0.559-0.018
	c-1.136,0-2.156-0.4-3.261-0.503c-0.225-0.022-0.519-0.103-0.739-0.031c-0.102,0.006-0.204,0.012-0.306,0.018
	c-1.156,0-3.102,2.162-3.487,3.136c-0.116,0.291-0.138,0.679-0.048,0.988c0.186,0.421,0.371,0.841,0.557,1.261
	c0.145,0.178,0.912,0.659,0.918,0.742c-0.155,0.533-0.31,1.065-0.466,1.597c-0.334,1.733,0.248,3.752,1.373,4.899
	c1.06,1.081,2.313,1.717,3.857,1.862c0.318,0.029,1.448-0.107,1.622,0.022c0.011,0.084,0.022,0.169,0.033,0.253
	c0.19,0.61,1.044,0.974,1.642,1.03v-0.018c0.002-0.023,0.004-0.046,0.006-0.07c-0.055-0.264-0.178-0.475-0.097-0.766h0.018v0.017
	c0.019,0.024,0.037,0.048,0.055,0.072c0.274,0.514,0.544,0.637,1.13,0.761c0.141,0.03,0.313,0.097,0.462,0.032
	c0.163-0.073-0.118-0.714,0.173-0.971c0.044,0.086,0.089,0.171,0.134,0.256c0.303,0.689,1.148,0.932,1.939,0.777
	c0-0.154-0.243-0.272-0.268-0.446c-0.017-0.114-0.013-0.252,0.06-0.334c0.009-0.008,0.017-0.016,0.025-0.024
	c0.155-0.124,0.414-0.132,0.586-0.262c0.097-0.132,0.193-0.263,0.29-0.394c0.01-0.005,0.019-0.011,0.028-0.018
	c0.336,0,0.776,1.55,0.948,1.533c0.036-0.012,0.072-0.023,0.108-0.035c0.402-0.185,0.674-0.553,0.968-0.872
	c0.197-0.215,0.454-0.394,0.578-0.65c0.488-1.007-0.818-1.655-0.462-2.265c0.483-0.829,1.682-0.902,2.146-1.772
	c0.019-0.07,0.038-0.141,0.057-0.211h-0.018H18.35c-0.212,0-0.453,0.031-0.613-0.072c-0.006-0.011-0.012-0.023-0.018-0.035
	c0.352,0,1.47-1.046,1.717-1.368c0.124-0.163,0.184-0.346,0.247-0.536c-0.023-0.036-0.048-0.072-0.072-0.108
	c-0.06,0.018-0.12,0.036-0.181,0.054c-0.066,0.012-0.132,0.024-0.198,0.035c-0.204-0.005-0.408-0.011-0.613-0.017v-0.018h0.019
	c0.026-0.021,0.053-0.042,0.078-0.064c0.435-0.249,1.177-0.557,1.346-1.111c-0.109,0.012-0.217,0.024-0.325,0.036
	c-0.103,0-0.459,0.053-0.453-0.102c0.004-0.011,0.007-0.023,0.01-0.033c0.127-0.09,0.254-0.18,0.381-0.269
	c0.334-0.241,0.757-0.653,0.852-1.047c0.066-0.271-0.055-0.492-0.087-0.739c0.266-0.128,0.532-0.257,0.799-0.385
	c1.343-0.681,2.734-2.071,4.518-1.52h0.035c-0.006,0.024-0.012,0.047-0.018,0.072c-0.361,0-1.527,0.773-1.832,1.038
	c-0.635,0.552-1.478,1.251-1.548,2.131c-0.057,0.701,0.403,1.27,0.743,1.786c0.557,0.848,1.217,2.345,0.224,3.183
	c-0.298,0.251-0.633,0.32-0.974,0.478c-0.132,0.03-0.264,0.059-0.397,0.089c-0.042,0.006-0.084,0.012-0.126,0.018
	c-0.108,0.006-0.216,0.011-0.324,0.017c-0.109,0.024-0.217,0.048-0.325,0.071c-0.066,0.007-0.132,0.012-0.198,0.018
	c-0.042,0.006-0.084,0.012-0.126,0.018c-0.213,0-0.417,0.018-0.595,0.089c-0.21,0.07-0.422,0.139-0.632,0.21
	c-1.074,0.437-1.798,2-0.994,3.021c0.405,0.514,1.067,0.7,1.735,0.722v-0.018c-0.007-0.059-0.016-0.117-0.024-0.177
	c-0.213-0.647,0.051-1.003,0.511-1.371h0.018v0.035c0.006,0.007,0.012,0.012,0.019,0.018c-0.089,0-0.074,0.398-0.063,0.479
	c0.1,0.757,1.1,1.053,1.81,0.892c0-0.201-0.223-0.33-0.188-0.566c0.029-0.202,0.384-0.311,0.514-0.467
	c0.162-0.237,0.323-0.474,0.484-0.712c0.006-0.005,0.012-0.012,0.017-0.018c0.007,0.006,0.012,0.012,0.019,0.018
	c0,1.072,0.436,1.629,1.512,1.714c0.244,0.019,0.573,0.028,0.747-0.124c0.097-0.084-0.073-0.213-0.123-0.268
	c-0.55-0.598,0.12-0.683,0.15-1.305c0.021-0.416-0.13-0.72-0.177-1.085h0.019c0.108,0.005,0.216,0.01,0.324,0.016
	c0.16,0.014,0.321,0.029,0.482,0.043c0.476-0.049,1.753-0.541,2.063-0.877c0.056-0.06,0.101-0.237-0.041-0.215
	c-0.672,0-1.378-0.248-1.586-0.89c1.013,0,1.845,0.054,2.596-0.551c0.084-0.069,0.256-0.203,0.243-0.322
	c-0.012-0.021-0.025-0.041-0.039-0.062c-0.205-0.035-0.412-0.072-0.617-0.107c-0.715-0.264-1.294-1.033-0.836-1.799
	c0.138-0.233,0.501-0.75,0.83-0.719c0.129,0.012,0.404,0.563,0.608,0.7c0.788,0.525,1.868,0.507,2.435,1.406
	c0.625,0.995,0.216,1.781-0.733,2.219c-0.102,0.03-0.204,0.06-0.306,0.089c-0.078,0.007-0.156,0.012-0.235,0.018
	c-0.065,0.012-0.132,0.024-0.198,0.036c-0.084,0.006-0.168,0.011-0.253,0.017c-0.066,0.006-0.132,0.012-0.198,0.018
	c-0.072,0.007-0.144,0.012-0.216,0.018c-0.042,0.006-0.084,0.012-0.126,0.018c-0.126,0.017-0.253,0.035-0.378,0.053
	c-0.335,0-0.716,0.317-0.96,0.512c-1.235,0.975-1.241,2.861,0.527,3.152c0.157,0.026,0.454,0.058,0.568-0.059
	c0.027-0.146,0.054-0.292,0.081-0.437c0.006-0.005,0.012-0.011,0.018-0.018c0,0.303,1.452,0.719,1.637,0.505
	c0.089-0.104-0.045-0.472,0.009-0.631c0.036-0.108,0.116-0.183,0.208-0.253c0.103-0.064,0.205-0.127,0.309-0.191v0.018
	c0.008,0.048,0.016,0.095,0.024,0.142c0.024,0.385,0.185,0.72,0.543,0.875c0.207,0.089,1.568,0.24,1.616-0.053
	c0.034-0.21-0.308-0.324-0.209-0.608c0.157-0.456,0.435-0.841,0.585-1.318h0.036c0.057,0.127,0.115,0.253,0.173,0.379
	c0.291,0.766,0.95,1.753,1.952,1.559c0.188-0.037,0.434-0.089,0.571-0.22c0.008-0.008,0.015-0.016,0.023-0.025
	c0.007-0.012,0.015-0.024,0.022-0.037c0.004-0.034,0.007-0.067,0.01-0.102c-0.053-0.163-0.425-0.328-0.51-0.579
	c-0.093-0.27,0.071-0.473,0.088-0.727c0.032-0.491-0.341-0.68-0.583-1.032c-0.006-0.012-0.012-0.024-0.019-0.035
	c0.065,0,0.87-0.497,0.866-0.573c-0.006-0.12-0.464-0.317-0.359-0.472c0.19-0.046,0.38-0.094,0.57-0.139
	c0.685-0.242,0.865-1.214,0.887-1.879h-0.018c-0.006-0.004-0.011-0.008-0.017-0.012c-0.184,0.062-0.605,0.366-0.812,0.476
	c-0.066,0.006-0.132,0.011-0.199,0.017c-0.269,0-0.507-0.003-0.684-0.178c0.149-0.109,0.297-0.218,0.446-0.328
	c0.56-0.472,1.165-1.087,1.153-1.879c-0.002-0.083,0-0.227-0.079-0.268c-0.034,0.004-0.065,0.006-0.098,0.009
	c-0.109,0.102-0.219,0.204-0.329,0.305c-0.178,0.075-0.356,0.147-0.534,0.221c-0.17,0-0.604,0.033-0.649-0.157
	c-0.02-0.087,0.05-0.172,0.097-0.231c0.189-0.251,0.384-0.574,0.417-0.895c0.04-0.419-0.35-2.053-0.862-1.957
	c-0.005,0.001-0.01,0.002-0.015,0.004c-0.098,0.168-0.197,0.336-0.295,0.505c-0.137,0.161-0.311,0.214-0.494,0.292
	c-0.271,0-0.503-0.023-0.686-0.198c-0.618-0.592-0.63-2.425-1.016-3.27c-0.193-0.324-0.387-0.648-0.579-0.972
	c-0.158-0.223-0.318-0.446-0.476-0.669c0.192,0,0.386,0.097,0.541,0.18c0.835,0.448,2.356,1.146,3.369,1.146
	c0.836,0,1.553-0.249,2.241-0.537c0.08-0.034,0.424-0.122,0.392-0.251c-0.018-0.071-0.154-0.073-0.219-0.077
	c-0.615-0.039-1.072-0.431-1.458-0.871v-0.018h0.018c0.198,0.001,0.395,0.002,0.592,0.003c1.248-0.15,2.619-0.648,2.87-1.997
	c0.11-0.593-0.656,0.037-0.885,0.142c-0.415,0-0.805,0.025-1.117-0.16c0-0.059,0.494-0.37,0.574-0.431
	c0.742-0.564,1.124-1.481,0.713-2.359c-0.11-0.234-0.229-0.623-0.494-0.734v0.018c-0.012,0.059-0.025,0.118-0.038,0.177
	c-0.048,0.37-0.675,1.246-1.121,1.141c0,0-0.569-1.195-0.674-1.347c-0.56-0.807-2.239-1.533-3.302-1.29
	c-0.066,0.012-0.132,0.024-0.198,0.036c-0.036,0.006-0.072,0.012-0.108,0.018s-0.072,0.012-0.108,0.018
	c-0.048,0.006-0.097,0.012-0.145,0.018c-0.09,0.018-0.18,0.035-0.271,0.054c-0.041,0.006-0.083,0.012-0.126,0.018
	c-0.06,0.006-0.119,0.012-0.18,0.018c-0.036,0.006-0.073,0.011-0.108,0.018c-0.565,0-1.168,0.317-1.683,0.47
	c-0.424,0.122-0.848,0.245-1.272,0.367c-0.114,0.03-0.228,0.059-0.342,0.089c-0.036,0.006-0.072,0.012-0.108,0.018
	c-0.037,0.006-0.073,0.012-0.109,0.018c-0.138,0.031-0.276,0.06-0.414,0.089c-0.036,0.006-0.072,0.012-0.108,0.018
	c-0.077,0.012-0.155,0.024-0.234,0.036c-0.06,0.006-0.12,0.012-0.18,0.018c-0.048,0.006-0.096,0.012-0.144,0.018
	c-1.416,0-2.635-0.133-3.597-0.972c-1.297-1.131-0.659-3.362,1.041-3.609c2.106-0.308,1.784,2.912,0.359,2.587h-0.018
	c-0.006,0.006-0.012,0.011-0.019,0.017v0.035c-0.005,0.006-0.011,0.012-0.017,0.018c0.098,0.08,0.197,0.16,0.295,0.239
	c0.438,0.232,1.046,0.408,1.61,0.262c0.278-0.072,0.604-0.235,0.82-0.429c0.129-0.117,0.784-0.901,0.787-0.901
	c0.201,0,0.501,0.42,0.674,0.521c1.041,0.608,2.385,0.758,3.6,0.308c-0.017-0.019-0.033-0.039-0.049-0.058
	c-0.462-0.339-1.147-0.436-1.374-1.064h0.019V6.871c0.252,0.137,0.503,0.273,0.756,0.41c0.301,0.149,0.624,0.266,0.962,0.343
	c0.869,0.198,1.604-0.278,2.444-0.212c0.646,0.051,1.269,0.324,1.72,0.77c0.16,0.169,0.32,0.336,0.479,0.505V8.669
	c-0.019-0.237-0.038-0.474-0.057-0.712c-0.061-1.279-0.629-2.51-1.907-2.852c-0.281-0.076-0.675-0.152-0.991-0.085
	c-0.066,0.006-0.132,0.012-0.198,0.018c-0.066,0.012-0.132,0.024-0.199,0.036c-0.102,0.012-0.204,0.024-0.306,0.036
	c-0.072,0.012-0.145,0.024-0.217,0.035c-0.114,0.018-0.228,0.036-0.342,0.053c-0.09,0.006-0.18,0.012-0.27,0.018
	c-0.212,0-0.07-0.238-0.035-0.321c0.597-1.423-1.106-1.828-2.056-2.047v0.018h-0.017c0.07,0.184,0.14,0.369,0.212,0.553
	c0.159,0.741-0.445,1.084-0.986,1.334c-0.054,0.012-0.108,0.024-0.163,0.036c-0.035,0.006-0.072,0.012-0.108,0.018
	c-0.36,0-0.869-0.018-1.117-0.249c0.072-0.096,0.143-0.193,0.214-0.289c0.711-0.879-0.051-2.471-0.989-2.898
	c0,0.865-0.603,1.544-1.351,1.852c-0.288,0.083-0.576,0.166-0.865,0.249c-0.059,0.006-0.119,0.012-0.18,0.018
	c-0.085,0.006-0.169,0.012-0.253,0.018c-0.054,0.006-0.108,0.012-0.162,0.018c-0.126,0.006-0.252,0.012-0.379,0.018
	c-0.036,0.006-0.072,0.012-0.108,0.018c-0.083,0.006-0.168,0.012-0.253,0.018c-0.113,0.012-0.228,0.024-0.342,0.036
	c-0.363,0.117-0.726,0.233-1.088,0.35c-2.08,0.924-3.379,3.397-2.073,5.531c0.302,0.492,0.731,0.866,1.214,1.188
	c0.193,0.128,0.853,0.372,0.944,0.559c0.055,0.114-0.94,0.73-0.706,0.976c0.017,0.007,0.033,0.013,0.05,0.019
	c0.33-0.057,0.66-0.113,0.991-0.169c0.38-0.053,1.328,0.078,1.677,0.198v0.035c-0.132,0.095-0.263,0.19-0.396,0.285h-0.126v0.018
	v0.053c0.025,0.006,0.048,0.013,0.072,0.018c1.71,0.554,2.476,0.344,3.911-0.498c0.055-0.018,0.111-0.037,0.166-0.054
	c0.147,0.053,0.323,1.043,0.933,1.194c0.099,0,0.172-0.521,0.209-0.611c0.502-1.241,2.251-2.681,3.691-1.707
	c0.814,0.55,1.002,1.73,0.188,2.369c-0.326,0.255-0.677,0.311-1.061,0.447c-0.156,0.036-0.313,0.071-0.469,0.106
	c-0.035,0.007-0.072,0.012-0.108,0.018c-0.251,0.012-0.504,0.023-0.756,0.035c-2.414,0-4.657-0.396-6.869-0.788
	c-1.169-0.207-2.306-0.474-3.583-0.533c-0.355,0.002-0.709,0.003-1.064,0.004c-0.048,0.006-0.096,0.012-0.144,0.018
	c-0.09,0.006-0.179,0.012-0.27,0.018c-0.036,0.006-0.072,0.012-0.109,0.018c-0.042,0.006-0.084,0.012-0.126,0.018
	c-0.047,0.006-0.096,0.012-0.144,0.018c-0.036,0.006-0.072,0.012-0.108,0.018c-0.084,0.018-0.169,0.035-0.252,0.053
	c-0.084,0.018-0.168,0.035-0.252,0.054c-0.078,0.012-0.157,0.024-0.235,0.035c-0.418,0-0.762,0.264-1.153,0.338
	c0.058-0.243,0.114-0.488,0.172-0.732c0.21-1.411,0.289-1.808-0.478-2.971c0.092-0.046,0.183-0.092,0.274-0.138
	c0.376-0.143,0.746-0.405,1.016-0.725c0.133-0.16,0.713-1.281,0.434-1.441c-0.105-0.062-0.521,0.119-0.625,0.168
	c-0.204,0-1.006-0.128-0.993-0.369c0.003-0.011,0.007-0.023,0.01-0.034c0.22-0.162,0.44-0.325,0.66-0.486
	c0.237-0.253,0.472-0.506,0.708-0.76c0.232-0.162,0.464-0.325,0.695-0.487c0.006-0.012,0.012-0.024,0.018-0.036
	c-0.017-0.013-0.036-0.027-0.053-0.04c-0.489-0.498-1.263-0.972-1.919-1.155c-0.196-0.023-0.391-0.046-0.586-0.069
	c0.028-0.202,0.056-0.404,0.084-0.605c0.012-0.193,0.051-0.61-0.13-0.702c-0.214-0.11-0.717,0.313-0.823,0.152
	c-0.181-0.275,0.172-1.365-0.354-1.569c-0.196-0.077-0.623,0.328-0.778,0.428c-0.031-0.043-0.063-0.086-0.094-0.129
	C15.726,1.18,15.532,0.223,15.25,0C14.935,0.43,14.521,0.846,14.223,1.299 M14.908,2.314h0.018C15.01,2,15.094,1.685,15.178,1.37
	h0.019V1.353h0.018c0.05,0.139,0.099,0.276,0.147,0.415c0.083,0.391-0.029,0.822,0.177,1.151c0.114,0,0.481-0.719,0.666-0.854V2.047
	h0.019c-0.054,0.249-0.108,0.498-0.162,0.747V2.83h0.018c0.108-0.231,0.216-0.463,0.324-0.694h0.018
	c0.006-0.006,0.012-0.012,0.018-0.018c0.006,0.006,0.012,0.012,0.019,0.018c0,0.32-0.133,1.496-0.05,1.671
	c0.019,0.014,0.037,0.028,0.055,0.042c0.099,0.006,0.582-0.619,0.859-0.681v0.018h0.019c-0.006,0.006-0.012,0.012-0.019,0.018
	c0,0.188-0.248,0.394-0.27,0.623h0.018v0.018h0.018c0-0.12,0.329-0.425,0.432-0.48c0,0.533-0.152,0.95-0.324,1.406h0.018v0.035
	c0.15,0,0.489-0.173,0.708-0.201c0.345-0.045,1.448,0.357,1.531,0.687c0.03,0.122-0.132,0.239-0.199,0.321
	c-0.511,0.632-0.839,0.758-1.537,1.08c-0.048,0.006-0.096,0.012-0.144,0.018c-0.077,0.006-0.156,0.012-0.234,0.018
	c-0.06,0.006-0.12,0.012-0.18,0.018c-0.108,0.03-0.216,0.06-0.325,0.089h0.018c0,0.075,0.32,0.285,0.365,0.398
	c0.161,0.396-0.201,0.802-0.612,0.722c-0.171-0.033-0.655-0.394-0.735-0.366c-0.01,0.012-0.022,0.022-0.033,0.032
	c-0.207,0.407,0.1,0.46-0.389,0.816c-0.06,0.012-0.12,0.024-0.181,0.035c-0.434,0-0.917-0.393-0.643-0.834
	c0.147-0.237,0.701-0.329,0.745-0.471c0.1-0.327-1.16-0.955-1.471-0.884c-0.459,0-0.951,0.294-1.369,0.427
	c0,0.3,1.105,0.541,0.126,1.122c-0.042,0.006-0.084,0.012-0.126,0.018c-0.706,0-0.754-0.716-0.343-1.122
	c-0.026-0.001-0.053-0.003-0.08-0.003c-0.229,0.065-0.529,0.438-0.803,0.555c-0.294,0-0.503-0.203-0.522-0.483
	c-0.023-0.319,0.503-0.666,0.477-0.76c-0.036-0.129-0.288-0.14-0.405-0.147C9.769,5.822,9.709,5.3,9.303,4.519
	C9.147,4.288,8.991,4.058,8.835,3.827c0.168,0,0.336-0.143,0.558-0.139c0.616,0.01,1.015,0.372,1.515,0.601
	c0.09,0.042,0.236,0.072,0.308-0.022c0.157-0.208-0.082-0.719-0.074-0.973h0.018V3.275c0.006,0.006,0.012,0.012,0.018,0.018
	c0.253,0,0.418,0.502,0.69,0.532c0.266,0.029,0.209-1.02,0.229-1.226c0.175,0,0.308,0.483,0.36,0.605h0.018V3.186
	c-0.012-0.243-0.024-0.487-0.036-0.73h0.018c0.006-0.006,0.012-0.012,0.018-0.018c0,0.002,0.599,0.533,0.702,0.482
	c0.266-0.131,0.253-0.705,0.271-0.981h0.018V1.923h0.018c0.043,0.142,0.084,0.284,0.126,0.427v0.018h0.019
	c0-0.139,0.077-0.395,0.108-0.552h0.018c0.006-0.006,0.012-0.012,0.018-0.018c0,0.19,0.352,0.513,0.505,0.587
	c0.025-0.037,0.05-0.075,0.075-0.112c0.137-0.391,0.214-0.746,0.537-1.045C15.017,1.43,14.813,2.014,14.908,2.314 M28.927,3.827
	c0.02,0.01,0.038,0.018,0.057,0.028c0.514,0.036,0.815-0.623,0.951-0.989c0.012-0.029,0.025-0.059,0.037-0.089
	c0.022,0.02,0.043,0.039,0.064,0.058c0.407,0.621-0.07,1.122-0.605,1.348c-0.054,0.012-0.108,0.024-0.162,0.036
	c-0.21-0.006-0.421-0.012-0.631-0.018h-0.035c0,0.307,2.055,1.094,2.414,1.116c0.554,0.034,1.088-0.08,1.509-0.325
	c0.49-0.287,0.601-0.813,0.834-1.254h0.018c0.019,0.153,0.038,0.307,0.056,0.46c-0.025,0.248-0.16,0.419-0.219,0.643h0.019
	c0.025-0.024,0.05-0.048,0.076-0.071c0.227-0.163,0.308-0.851,0.403-0.848c0.01,0.003,0.02,0.006,0.031,0.01
	c0.076,0.114,0.151,0.227,0.225,0.341c0.211,0.594-0.405,0.86-0.826,1.013c-0.131,0-0.291,0.024-0.378,0.107
	c0.066,0.035,0.132,0.07,0.198,0.106c1.504,0.377,3.549-0.6,4.581,0.675c0.156,0.193,0.311,0.385,0.374,0.625h-0.017
	c0-0.338-1.455-0.635-1.821-0.552c-0.066,0.006-0.132,0.012-0.198,0.018h-0.522c-0.186-0.012-0.373-0.024-0.559-0.035v0.018h-0.017
	c0.006,0.024,0.011,0.047,0.017,0.071c0.199,0.027,0.397,0.054,0.596,0.081c0.821,0.053,1.567-0.061,2.187,0.394
	c0.049,0.037,0.214,0.136,0.183,0.215c-0.001,0.003-0.003,0.005-0.005,0.009c-0.009,0.006-0.018,0.012-0.027,0.018
	c-0.18,0.053-0.924-0.29-1.348-0.2h-0.216c-0.041,0.006-0.084,0.012-0.126,0.017c-0.041,0.006-0.084,0.012-0.126,0.018
	c-0.199,0.048-0.397,0.095-0.595,0.142c-0.042,0.006-0.084,0.012-0.126,0.018c-0.048,0.006-0.097,0.012-0.144,0.018
	c-1.017,0-1.559-0.58-2.388-0.9c-0.28-0.109-0.57-0.12-0.892-0.156c-0.175-0.015-0.352-0.03-0.527-0.044
	c-0.027,0.016-0.053,0.031-0.079,0.048c0.119,0.201,0.657,0.364,0.857,0.645c0.115,0.161,0.495,0.731,0.397,0.939
	c-0.128,0.04-0.843-0.617-0.961-0.743c-0.105-0.095-0.211-0.192-0.317-0.287h-0.036c-0.006,0.012-0.012,0.024-0.018,0.036
	C31.1,6.591,31.108,6.595,31.116,6.6c0.31,0.486,0.841,0.766,1.2,1.18c0.006,0.012,0.012,0.024,0.018,0.035h-0.018
	c-0.006,0.006-0.012,0.01-0.019,0.015c-0.312-0.039-0.625-0.105-0.89-0.242c-0.276-0.143-0.534-0.402-0.763-0.635
	c-0.181-0.185-1.086-1.504-1.425-1.224c-0.062,0.049-0.006,0.149,0.021,0.196c0.279,0.492,0.012,0.938-0.262,1.34
	c-0.178,0.26-0.5,0.536-0.807,0.586V7.833h-0.018V7.815c0.256,0,0.495-1.104,0.486-1.353h-0.018V6.444h-0.017
	c0,0.465-0.451,0.958-0.757,1.282h-0.072c0.053-0.102,0.104-0.204,0.157-0.306c0.101-0.218,0.187-0.482,0.191-0.744
	c0.018-1.078-1.207-2.054-2.33-1.798c-0.792,0-1.645,0.859-1.95,1.512c-0.39,0.831-0.181,1.787,0.235,2.514
	c0.363,0.635,1.068,1.019,1.709,1.275c2.168,0.866,4.647-0.021,6.674-0.567c0.749-0.202,1.469-0.459,2.341-0.418
	c0.857,0.04,1.423,0.362,2.064,0.819c0.62,0.442,0.93,1.205,0.853,2.003c-0.007,0.071-0.032,0.223,0.054,0.246
	c0.167,0.044,1.368-0.755,1.572-0.905h0.018v0.018c-0.009,0.035-0.019,0.068-0.028,0.103c-0.199,0.321-0.611,0.677-0.927,0.859
	c0.006,0.005,0.012,0.01,0.017,0.015c0.251-0.048,0.946-0.666,1.011-0.53c0.214,0.452-1.745,1.456-1.983,1.762
	c-0.006,0.006-0.012,0.012-0.019,0.018c0.79,0,1.399,0.365,2.145,0.48v0.018c-0.108,0.041-0.217,0.081-0.326,0.122
	c-0.162,0.013-0.324,0.026-0.485,0.038c-0.343-0.029-0.685-0.059-1.028-0.089h-0.197c-0.024,0.007-0.048,0.012-0.072,0.018
	c-0.121,0.024-0.241,0.047-0.361,0.071v0.054h0.019c0.067,0.002,0.132,0.003,0.199,0.004c0.513-0.053,1.179,0.06,1.674,0.174
	c0,0.117-0.37,0.205-0.449,0.249c-0.078,0.012-0.157,0.024-0.235,0.036c-0.186,0.012-0.373,0.024-0.558,0.035
	c-0.048,0.006-0.097,0.012-0.144,0.018h-0.667h-0.955c-0.096,0.006-0.193,0.012-0.289,0.018c-0.204,0.048-0.408,0.096-0.613,0.144
	c-0.05,0.015-0.243,0.075-0.18,0.162c0.038,0.013,0.076,0.026,0.113,0.038c0.846,0.048,1.533,0.209,2.013,0.92
	c0.006,0.006,0.012,0.012,0.017,0.017c-0.603,0-1.097-0.39-1.73-0.409v0.018c0.042,0.03,0.083,0.061,0.125,0.092
	c0.203,0.095,1.441,0.374,1.349,0.594c-0.119,0.015-0.238,0.029-0.356,0.044c-0.681,0-1.252-0.103-1.816-0.315
	c-1.161-0.437-2.167-1.037-3.429-1.306c-0.274-0.059-0.626-0.167-0.918-0.07c-0.28,0-0.537-0.005-0.721,0.178
	c0.007,0.012,0.012,0.022,0.02,0.034c0.256,0.09,0.514,0.182,0.771,0.273c0.924,0.369,1.728,1.193,2.165,2.077
	c0.391,0.793,0.555,1.721,0.766,2.601c0.094,0.395,0.199,0.88,0.423,1.215c0.291,0.436,0.857,0.725,1.421,0.649
	c0.399-0.054,0.596-0.415,0.94-0.566c0,0.461-0.513,0.884-0.883,1.068c0.07-0.001,0.141-0.002,0.211-0.002
	c0.352-0.087,0.609-0.445,0.833-0.71c0.019,0.037,0.038,0.073,0.056,0.109c0.097,0.572-0.444,0.942-0.867,1.139
	c-0.024,0.012-0.048,0.023-0.072,0.034c-0.036,0.006-0.072,0.012-0.108,0.018H35c-0.22,0-0.366-0.14-0.558-0.177
	c-0.024,0.005-0.048,0.012-0.072,0.017h-0.018c0.085,0.101,0.17,0.201,0.255,0.302c0.626,0.658,1.265,0.915,2.232,0.945
	c0,0.124-0.317,0.182-0.396,0.214c-0.036,0.007-0.072,0.012-0.108,0.018c-0.066,0.007-0.132,0.012-0.198,0.018
	c-0.078,0.018-0.156,0.036-0.234,0.054c-0.24-0.018-0.481-0.036-0.721-0.054c-0.006,0.018-0.012,0.036-0.019,0.054
	c0.029,0.014,0.059,0.029,0.087,0.043c0.467,0.139,1.019,0.043,1.517,0.028v0.017c0.001,0.01,0.001,0.018,0.001,0.028
	c-0.222,0.344-0.714,0.421-1.064,0.56c-0.144,0.018-0.288,0.035-0.433,0.054c0.025,0.042,0.049,0.084,0.072,0.126
	c0.496,0.574,1.271,0.955,2.072,0.906v0.018c-0.144,0.054-0.288,0.106-0.432,0.161c-0.102,0.01-0.206,0.022-0.308,0.032
	c-0.003,0.069,0.253,0.084,0.326,0.092v0.018h0.018c-0.006,0.007-0.011,0.012-0.018,0.018c-0.078,0.053-0.156,0.107-0.234,0.16
	c-0.084,0.007-0.168,0.012-0.252,0.018c-0.418,0-0.759-0.136-1.136-0.196v0.018c0.006,0.045,0.011,0.091,0.016,0.136
	c0.127,0.344,1.075,0.825,0.723,1.127c-0.066,0.007-0.132,0.012-0.198,0.018c-0.078,0.012-0.157,0.023-0.234,0.035
	c-0.127,0-0.479-0.077-0.541,0.036c0.246,0,1.221,1.16,1.174,1.416c-0.036,0.198-0.206,0.238-0.364,0.311
	c-0.171,0-0.33,0.025-0.467,0.089c-0.5,0-0.59-0.699-0.825-1.007c-0.605-0.798-0.668,0.287-0.857,0.684
	c-0.079,0.166-0.189,0.269-0.337,0.376c-0.172,0-0.314-0.064-0.434-0.161c-0.465-0.379,0.295-0.978,0.361-1.387h-0.018v-0.018
	h-0.036c0,0.076-1.736,1.558-1.903,1.583c-0.212,0.032-0.359-0.254-0.536-0.326c-0.109-0.046-0.371-0.076-0.411-0.209
	c-0.147-0.49,2.212-0.745,2.092-1.512v-0.018c-0.189,0.092-0.378,0.182-0.566,0.273c-0.666,0.27-1.468,0.388-2.054,0.811
	c-0.287,0.206-0.401,0.52-0.695,0.714c-0.094-0.011-0.189-0.023-0.283-0.035c-1.241-0.35-0.33-1.178,0.407-1.412
	c1.34-0.426,3.626-0.144,3.658-2.15c0.01-0.654-0.238-1.21-0.656-1.65c-0.323-0.34-0.786-0.667-1.202-0.836
	c-0.348-0.141-0.929-0.255-1.185-0.543c-0.438-0.493-0.488-1.369-0.734-1.969c-0.422-1.029-1.223-2.22-2.276-2.766
	c-0.327-0.169-0.688-0.232-1.051-0.331c-0.34-0.093-0.815-0.218-1.202-0.13c-0.113,0.024-0.228,0.048-0.343,0.071
	c-0.174,0.036-0.348,0.072-0.522,0.108c-0.924,0-2.456,1.092-3.264,1.526c-0.209,0.079-0.419,0.157-0.628,0.236
	c-0.078,0.012-0.157,0.024-0.235,0.035c-0.041,0.007-0.084,0.012-0.126,0.018c-0.18-0.018-0.36-0.035-0.54-0.054
	c0,0.089-0.129,0.121-0.093,0.246c0.047,0.155,0.231,0.225,0.343,0.328c0.416,0.385,0.001,0.708-0.322,0.921
	c-0.06,0.012-0.12,0.024-0.18,0.035c-0.324,0-0.716-0.072-0.992,0.035c0,0.294,0.921,0.61,1.135,0.695h0.037
	c0,0.241-1.23,0.348-1.279,0.564c-0.061,0.271,0.542,0.306,0.703,0.344v0.035c-0.042,0.024-0.085,0.048-0.127,0.071
	c-0.036,0.007-0.072,0.012-0.108,0.018c-0.066,0.012-0.132,0.023-0.198,0.035c-0.036,0.006-0.072,0.011-0.108,0.018
	c-0.18,0-0.373-0.021-0.505,0.071c-0.341,0,0.888,0.046,0.937,0.053h0.036v0.018c-0.139,0.074-0.279,0.148-0.418,0.222
	c-0.383,0.122-0.766,0.243-1.15,0.365c0,0.429,1.249,0.396,1.586,0.427v0.035c-0.096,0.031-0.192,0.06-0.288,0.089
	c-0.06,0.012-0.12,0.024-0.18,0.035c-0.066,0.007-0.132,0.012-0.198,0.019c-0.09,0.011-0.18,0.023-0.271,0.035
	c-0.084,0.007-0.168,0.012-0.252,0.018c-0.078,0.007-0.156,0.012-0.234,0.018h-0.253c0,0.119,0.998,0.078,1.226,0.072
	c0,0.129-0.544,0.251-0.648,0.289c-0.201,0.072-1.351,0.33-1.272,0.592c0.107,0.347,1.095,0.364,1.198,0.721
	c-0.09,0.012-0.18,0.024-0.27,0.035c-0.048,0.006-0.097,0.012-0.145,0.017c-0.273,0-0.647-0.075-0.883,0.018h-0.018v0.018
	c0.006,0.006,0.012,0.012,0.018,0.018c0.122,0,1.078,0.131,1.189,0.177c0.007,0.006,0.012,0.012,0.018,0.018
	c-0.254,0.122-0.508,0.244-0.763,0.366c-1.966,0.896,0.264,2.394-0.287,2.961c-0.099,0.101-0.795-0.293-1.203-0.104
	c-0.456,0-0.377-1.002-0.45-1.318c-0.761,0-0.856,2.552-2.079,1.551c-0.391-0.32,1.232-1.49,1.232-2.067h-0.018v-0.018h-0.019
	c0,0.23-1.912,1.783-2.185,1.874c-0.183,0.06-0.553-0.007-0.653-0.166c-0.227-0.36,1.623-0.989,1.793-1.494v-0.037
	c-0.163,0.09-0.325,0.178-0.488,0.267c-0.493,0.238-0.986,0.475-1.479,0.712c-0.344,0.214-0.622,0.491-0.989,0.659
	c-0.46,0-1.303-0.24-0.695-0.722c0.407-0.322,0.944-0.404,1.438-0.554c1.046-0.319,2.548-0.772,3.191-1.725
	c0.998-1.478,0.674-3.632,1.27-5.317c0.137-0.39,0.391-0.687,0.732-0.948c0.16-0.123,0.381-0.234,0.479-0.418h-0.019
	c-0.095,0.006-0.192,0.012-0.288,0.018c-1.218,0-1.253-1.306-0.89-2.169c0.115-0.275,0.321-0.47,0.494-0.716
	c0.006-0.012,0.012-0.024,0.018-0.035c-0.006-0.006-0.012-0.012-0.018-0.018h-0.036h-0.036c-0.126,0.059-0.254,0.117-0.38,0.177
	c-0.612,0.359-0.866,0.842-1.025,1.514h-0.018c0-0.298-0.101-0.41,0.001-0.768c0.193-0.678,0.835-1.136,1.062-1.796
	c0.096-0.281,0.073-0.629,0.073-0.961h0.018v-0.018h0.018c0.075,0.265,0.15,0.531,0.225,0.797c0.024,0.068,0.073,0.268,0.182,0.258
	c0.129-0.014,1.559-1.835,1.696-2.058c0.107-0.24,0.214-0.481,0.321-0.722c0.033-0.042,0.066-0.085,0.099-0.127
	c0.012,0.03,0.024,0.059,0.037,0.09c0.188,0.372,0.342,0.712,0.444,1.134c0.047,0.212,0.093,0.423,0.14,0.634
	c0.107,0.106,0.253-0.158,0.282-0.221c0.464-1.057,2.245-1.457,3.386-1.474c1.688-0.026,3.283,0.365,4.868,0.589
	c1.83,0.258,3.683,0.515,5.602,0.604c0.893,0.041,1.946,0.19,2.808-0.049c1.381-0.383,1.929-1.78,1.307-3.119
	c-0.323-0.697-1.269-1.298-2.097-1.161c-0.097,0.006-0.193,0.012-0.288,0.018c-0.042,0.006-0.084,0.012-0.126,0.018
	c-1.036,0-1.841,0.734-2.405,1.505c-0.111,0.181-0.223,0.361-0.334,0.542v0.018h-0.019c0-0.107-0.103-0.216-0.103-0.356
	c0-0.355,0.235-0.47,0.355-0.748c-1.034,0-1.2,0.49-1.985,0.94c-0.309,0.175-0.639,0.246-0.97,0.377h-0.036
	c0-0.032,1.083-0.865,1.225-0.997c0.007-0.006,0.012-0.012,0.019-0.018H29.54c-0.051,0.005-0.103,0.009-0.157,0.014
	c-0.477,0.21-0.778,0.719-1.302,0.858c0-0.158,0.676-0.715,0.774-0.944h-0.018v-0.018c-0.233,0.078-0.468,0.154-0.703,0.232
	c-0.12,0.024-0.241,0.047-0.36,0.071c-0.072,0.006-0.144,0.012-0.216,0.018c-0.588,0-1.152-0.037-1.694-0.072v-0.035
	c0.36-0.072,0.721-0.143,1.082-0.214v-0.018h-0.361c-0.048,0.006-0.096,0.012-0.144,0.018c-0.036,0.006-0.072,0.012-0.108,0.018
	c-0.097,0.007-0.193,0.012-0.288,0.018c-0.037,0.006-0.072,0.012-0.108,0.018c-0.132,0.018-0.264,0.036-0.397,0.054
	c0.023-0.032,0.045-0.064,0.067-0.096c0.059-0.053,0.449-0.199,0.409-0.304c-0.039-0.015-0.078-0.031-0.116-0.045
	c-0.969-0.076-2.391-0.953-2.859-1.821c-1.17-2.165,0.534-4.974,2.986-5.05c1.435-0.045,3.17-0.265,3.73-1.621
	C29.987,3.014,29.35,3.663,28.927,3.827 M14.522,7.103c-0.172,0.154-0.344,0.308-0.516,0.462v0.018c-0.128,0-0.613-0.581-0.554-0.69
	c0.082-0.153,0.352-0.199,0.5-0.254C14.133,6.662,14.576,6.855,14.522,7.103 M10.186,6.978c0,0.423,0.376,0.568,0.609,0.84
	c0.087,0.158,0.174,0.317,0.261,0.474c0.091,0.31,0.182,0.619,0.272,0.929c0.04,0.345,0.002,0.656,0.096,0.964
	c0.144,0.476,0.616,0.758,0.768,1.21c0.115,0.341-0.192,0.665-0.18,1.028c0.079,0.339,0.158,0.678,0.237,1.016
	c0.17,1.14-0.474,1.701-1.288,2.295v0.018h-0.018v-0.018c0.012-0.072,0.022-0.145,0.033-0.218c0.162-0.378,0.747-1.402,0.633-1.794
	v-0.018h-0.018c-0.005,0.006-0.012,0.012-0.018,0.018c0,0.288-0.743,1.746-0.973,1.941v0.018c-0.007-0.005-0.014-0.012-0.021-0.018
	c-0.087-0.543,0.03-1.098,0.189-1.566c0.239-0.71,1.165-1.805,0.571-2.618h-0.036c0,0.745-1.249,1.678-1.766,2.189H9.519
	c0.019-0.095,0.038-0.19,0.057-0.286c0.19-0.431,0.423-0.812,0.685-1.208c0.126-0.192,0.291-0.352,0.357-0.57h-0.018v-0.018h-0.018
	c-0.02,0.023-0.04,0.046-0.06,0.069c-0.579,0.536-1.159,1.619-1.364,2.352H9.141c-0.017-0.148-0.033-0.297-0.05-0.445
	c0.009-0.536,0.215-1.145,0.444-1.588c0.372-0.717,0.954-1.248,0.969-2.151c0.002-0.119-0.005-0.291-0.11-0.351
	c-0.103-0.059-0.21,0.109-0.259,0.177c-0.518,0.722-1.056,1.371-1.932,1.67v-0.018H8.186c0-0.339,0.74-0.944,0.973-1.228
	c0.006-0.006,0.012-0.012,0.018-0.018H9.159V10.04H9.141c-0.018,0.018-0.036,0.036-0.055,0.054c-0.394,0.251-0.71,0.632-1.08,0.925
	H7.988c0-0.656,0.5-1.48,1.121-1.72c0.408-0.158,0.86-0.177,1.132-0.559c-0.006-0.006-0.012-0.012-0.018-0.018
	c-0.633,0-1.342-0.446-1.586-1.015c0.436,0,0.777,0.267,1.262,0.196V7.85C9.85,7.835,9.8,7.818,9.752,7.801
	C9.321,7.708,8.981,7.584,8.619,7.37V7.317h0.018V7.299c0.602,0,0.97-0.095,1.441-0.357C10.114,6.954,10.15,6.966,10.186,6.978
	 M18.41,7.767c0.269,0.051,0.537,0.103,0.805,0.155c0.006,0.007,0.012,0.012,0.018,0.018c-0.336,0.148-0.674,0.296-1.008,0.445
	c-0.067,0.012-0.133,0.024-0.199,0.036c-0.102,0.012-0.204,0.024-0.306,0.036c0.02,0.013,0.039,0.025,0.059,0.038
	c0.471,0.118,1.018-0.239,1.455-0.305v0.018h0.018c-0.006,0.006-0.012,0.012-0.018,0.018c0,0.358-0.815,0.684-1.064,0.783
	c-0.035,0.006-0.072,0.012-0.108,0.018c-0.144,0.03-0.289,0.059-0.432,0.089c-0.097,0.007-0.193,0.012-0.288,0.018
	c-0.084,0.013-0.168,0.024-0.253,0.036c0.165,0.147,0.329,0.294,0.493,0.441c0.401,0.492,1.104,2.061,0.516,2.674v0.018h-0.018
	c0-0.639-0.266-1.527-0.703-1.958v-0.018h-0.018c0,0.331,0.245,0.642,0.336,0.945c0.095,0.319,0.118,0.674,0.186,1.013
	c-0.139,0-0.257-0.25-0.332-0.334c-0.631-0.705-0.901-1.26-0.966-2.265h-0.018v0.018c-0.042,0.054-0.084,0.108-0.126,0.161
	c-0.204,0.387-0.363,0.952-0.314,1.44c0.043,0.429,0.24,0.753,0.35,1.14c0.225,0.798-0.033,1.738-0.612,2.243v0.018h-0.019v-0.018
	c0.001-0.083,0.001-0.166,0.001-0.25c0.108-0.721-0.014-1.431-0.127-2.1h-0.018v0.018c-0.007,0.089-0.013,0.178-0.019,0.267
	c0.044,0.689,0.189,1.542-0.161,2.118h-0.018v0.018h-0.018c-0.104-0.287-0.209-0.574-0.314-0.862
	c-0.187-0.462-0.34-1.073-0.236-1.628c0.092-0.487,0.377-0.877,0.574-1.309c0.08-0.254,0.162-0.508,0.242-0.763
	c0.129-0.341,0.365-0.663,0.581-0.958c0.247-0.278,0.493-0.557,0.739-0.835c0.327-0.295,0.567-0.382,0.647-0.872
	C17.949,7.609,18.179,7.687,18.41,7.767 M14.423,8.921c0.111,0.542-0.358,1.723-0.776,2.027c-0.728,0-0.517-0.953-0.508-1.478
	c0.003-0.233-0.063-0.527,0.04-0.722c0.1-0.193,0.46-0.402,0.648-0.488V8.242C14.044,8.353,14.373,8.682,14.423,8.921 M12.15,9.043
	c-0.265,0-0.344-0.538-0.271-0.712C12.353,8.549,12.376,8.53,12.15,9.043 M15.268,9.702V9.684c-0.004-0.023-0.01-0.047-0.014-0.071
	c0.027-0.426,0.164-0.425,0.5-0.57C15.878,9.327,15.495,9.634,15.268,9.702 M12.421,10.663h-0.018v0.018
	c-0.343,0-0.566-0.652-0.523-0.926C12.292,10.01,12.438,10.12,12.421,10.663 M14.565,11.215h-0.18c0-0.377,0.405-0.648,0.721-0.73
	C15.226,10.819,14.8,11.091,14.565,11.215 M13.704,11.621c0.416,0.442-0.209,1.971-0.672,1.971c-0.101,0-0.18-0.167-0.221-0.238
	c-0.349-0.599-0.498-1.491,0.205-1.943v-0.018C13.243,11.421,13.546,11.454,13.704,11.621 M15.088,11.517
	c-0.005,0.006-0.012,0.012-0.018,0.018c0,0.19-0.731,1.175-0.824,1.532c-0.397,1.518,0.648,2.597-0.762,3.827v0.018h-0.036v-0.018
	c0.01-0.067,0.02-0.135,0.03-0.201c0.193-0.545,0.191-1.216,0.15-1.846c-0.006,0.006-0.012,0.012-0.019,0.018
	c-0.068,0-0.068,0.193-0.07,0.249c-0.023,0.72-0.075,1.517-0.542,2.011h-0.019v0.018h-0.018c0.001-0.225,0.002-0.45,0.003-0.674
	c-0.076-0.525-0.269-1.112-0.156-1.676c0.006-0.024,0.011-0.047,0.017-0.07c0.01-0.03,0.02-0.061,0.03-0.091
	c0.213-0.588,0.885-1.029,1.202-1.569c0.223-0.383,0.169-0.816,0.32-1.24c0.012-0.025,0.023-0.049,0.035-0.073
	c0.202-0.083,0.403-0.166,0.604-0.25C15.04,11.506,15.064,11.511,15.088,11.517 M12.331,15.809c0.223,0.934-0.344,1.902-1.189,2.26
	v-0.018c0.003-0.053,0.006-0.106,0.01-0.158c0.088-0.357,0.506-0.848,0.441-1.213c-0.235,0.409-0.469,0.819-0.703,1.228v0.018
	h-0.018c-0.026-0.084-0.053-0.168-0.079-0.251c-0.001-0.254-0.003-0.51-0.004-0.763c0.068-0.608,0.951-1.152,1.38-1.55
	C12.299,15.461,12.294,15.655,12.331,15.809 M8.186,16.514c0.572,0.002,1.144,0.003,1.715,0.005c0.127,0.053,0.1,0.301,0.106,0.427
	c0.051,1.081,0.314,0.851-0.704,1.354H9.285v-0.018H9.267c0.138-0.201,0.276-0.403,0.414-0.605H9.664v-0.018
	c-0.199,0-0.562,0.531-0.811,0.605c0-0.231,0.256-0.468,0.133-0.716c-0.028-0.058-0.084-0.066-0.147-0.05
	c-0.446,0.243-0.892,0.487-1.338,0.73v0.018H7.483v-0.018c0.002-0.026,0.003-0.054,0.004-0.08c0.09-0.262,0.257-0.439,0.23-0.757
	v-0.035H7.699c0,0.209-0.483,0.817-0.631,0.997v0.018H7.051v-0.018c-0.02-0.083-0.041-0.165-0.061-0.248
	c-0.129-0.544-0.809-0.827-1.416-0.678c-0.613,0-0.36,0.558-0.594,0.879c-0.109,0.149-0.277,0.158-0.433,0.224
	c-0.036,0.006-0.072,0.012-0.108,0.018c-0.048,0.006-0.096,0.012-0.144,0.018c-1.004,0,0.236-1.435,0.415-1.673H4.69
	c0-0.084-0.282,0-0.314,0.018c-0.439,0.227-0.832,0.671-0.956,1.142c-0.055,0.208-0.047,0.469-0.175,0.641
	c-0.12,0.159-0.909,0.479-1.092,0.37c-0.593-0.355,1.031-1.803,1.131-2.1v-0.018c-0.47,0-1.4,0.923-1.574,1.343
	c-0.092,0.285-0.184,0.57-0.277,0.855c-0.125,0.158-0.484,0.243-0.658,0.115c-0.278-0.204-0.043-0.607,0.089-0.806
	c0.605-0.933,1.41-1.767,2.429-2.244c0.391-0.184,0.774-0.131,1.218-0.224C5.742,16.138,6.928,16.435,8.186,16.514 M12.979,18.282
	c0.037,0.149,0.072,0.297,0.108,0.445c0.053,0.654-0.053,1.495-0.45,1.941v0.017h-0.036c-0.068-0.153-0.136-0.307-0.204-0.46
	c-0.409-0.998-0.971-1.605-0.085-2.654C12.64,17.893,12.279,18.438,12.979,18.282 M6.446,18.384
	c-0.042,0.128-0.347,0.095-0.459,0.13c-0.072,0.006-0.144,0.012-0.216,0.017H5.591v-0.017c-0.004-0.006-0.009-0.012-0.014-0.018
	c0.043-0.226,0.156-0.295,0.357-0.374C6.058,18.133,6.511,18.18,6.446,18.384 M8.186,18.265c-0.102,0.101-0.204,0.202-0.306,0.303
	c0.066,0.036,0.133,0.071,0.199,0.106C8.157,18.554,8.262,18.414,8.186,18.265 M28.578,21.054c0.072,0.201,0.237,0.44,0.199,0.676
	c-0.041,0.251-0.452,0.522-0.638,0.705c-0.641,0.632-0.997,1.742-0.459,2.584c0.161,0.252,0.435,0.35,0.617,0.578
	c-0.671,0-1.127-0.563-1.622-0.943v-0.018c0.009,0.046,0.018,0.091,0.027,0.137c0.246,0.315,0.666,0.526,0.885,0.849
	c0.013,0.029,0.026,0.058,0.038,0.088c-0.183,0.338-1.402-0.476-1.545-0.523c-0.018,0.007-0.036,0.012-0.054,0.018
	c-0.001,0.119-0.002,0.237-0.004,0.355c0.078,0.706,0.361,1.09,0.862,1.541c0.037,0.038,0.076,0.077,0.115,0.115v0.018
	c-0.066,0.009-0.132,0.018-0.198,0.027c-0.394-0.071-0.785-0.293-1.045-0.615c0.004,0.052,0.008,0.103,0.012,0.155
	c0.144,0.305,0.537,0.476,0.775,0.689c0.019,0.022,0.038,0.043,0.059,0.064c-0.048,0.018-0.096,0.036-0.144,0.053
	c-0.591,0-0.835-0.224-1.226-0.587v-0.018h-0.017c0,0.248-0.174,0.483-0.166,0.769c0.019,0.2,0.038,0.401,0.058,0.602
	c0.154,0.52,0.412,0.805-0.235,1.104c-1.152,0-0.47-0.838-0.68-1.415c-0.035-0.097-0.119-0.084-0.193-0.031
	c-0.612,0.435-0.846,1.359-1.47,1.73c-0.245,0-1.085-0.23-0.929-0.574c0.27-0.597,1.277-0.594,1.47-1.259
	c-0.065,0.009-0.131,0.017-0.196,0.026c-0.509,0.215-1.019,0.431-1.529,0.645c-0.311,0.169-0.6,0.483-0.953,0.568
	c-0.284,0.068-1.056-0.122-1.117-0.425c-0.123-0.611,0.859-0.854,1.276-0.928c0.89-0.158,1.935-0.155,2.71-0.557
	c1.587-0.824,1.354-2.768,0.715-4.131c-0.221-0.47-0.61-1.002-0.661-1.537c-0.14-1.446,2.022-2.575,3.124-2.865
	C27.615,18.727,28.262,20.182,28.578,21.054 M10.312,18.835v0.017c-0.018,0.16-0.036,0.321-0.054,0.481
	c0.028,0.004,0.057,0.007,0.085,0.011c0.255-0.11,0.508-0.221,0.762-0.331c0.008,0.089,0.016,0.177,0.025,0.267
	c0.047,0.741,0.895,1.355,1.021,2.225c0.012,0.089,0.022,0.2,0.119,0.23c0.185,0.057,0.366-0.314,0.493-0.407
	c0.288,0.418,0.576,0.835,0.863,1.253c0.099,0.334-0.108,0.823-0.161,1.15c-0.189,1.158-0.245,2.432-1.351,3.044v0.018h-0.018
	v-0.018c-0.002-0.023-0.004-0.046-0.006-0.069c0.089-0.24,0.177-0.481,0.266-0.72c0.56-2.159,0.159-4.37-1.512-5.827
	c-0.472-0.411-1.096-0.662-1.523-1.056c0.238,0,0.657-0.16,0.865-0.267H10.312z M8.799,19.422c-0.049,0.113-0.098,0.225-0.147,0.338
	c-0.268,0.381-0.703-0.126-0.992-0.262c-0.201-0.095-0.582-0.133-0.71-0.339c-0.058-0.092,0.024-0.225,0.082-0.289
	C7.627,18.906,8.329,19.12,8.799,19.422 M4.546,19.51c-0.006,0.007-0.012,0.012-0.018,0.018c-0.04-0.05-0.08-0.099-0.121-0.148
	c-0.2-0.25-0.013-0.354,0.175-0.493C4.798,19.002,4.665,19.37,4.546,19.51 M5.969,19.742c-0.174,0-0.554-0.243-0.667-0.374
	c-0.006-0.012-0.012-0.024-0.017-0.035c0.054-0.035,0.108-0.072,0.162-0.107C5.974,19.258,6.318,19.212,5.969,19.742 M3.177,20.329
	c-0.005,0.007-0.012,0.012-0.018,0.018c-0.484,0-1.011-0.622-0.288-0.907C3.085,19.554,3.083,20.109,3.177,20.329 M7.642,20.998
	c-0.057,0.036-0.117,0.047-0.181,0.017c-0.125-0.058-1.044-0.878-1.064-0.969c-0.036-0.161,0.17-0.408,0.293-0.5v-0.017
	C7.366,19.713,8.793,20.262,7.642,20.998 M10.936,21.308c-0.116,0.156-0.529,0.49-0.735,0.423c-0.096-0.032-0.996-1.153-1.258-1.365
	c0-0.194,0.331-0.518,0.487-0.623C9.67,19.89,11.155,21.008,10.936,21.308 M4.906,20.845v0.018H4.87
	c0-0.043-0.472-0.641-0.523-0.801h0.036c0.036,0.006,0.072,0.011,0.108,0.015c0.143,0.039,0.539,0.17,0.651,0.015
	c0.03-0.086,0.059-0.174,0.088-0.262v-0.018C6.06,20.135,5.397,20.574,4.906,20.845 M1.519,20.721c-0.42,0-0.728-0.61-0.379-0.89
	C1.604,19.859,1.612,20.319,1.519,20.721 M14.585,20.129c-0.129,0.242-0.258,0.483-0.387,0.725
	c-0.093,0.265-0.188,0.529-0.281,0.794v0.018c-0.006-0.006-0.012-0.012-0.018-0.018c-0.29,0-0.529-1.307-0.378-1.584v-0.018
	c0.15,0,0.194,0.438,0.355,0.493c0.19,0.065,0.468-0.566,0.528-0.689C14.511,19.896,14.599,19.994,14.585,20.129 M4.388,21.282
	c-0.212,0.128-0.423,0.255-0.635,0.383c-0.393,0,0.025-1.163,0.054-1.336C3.958,20.47,4.524,21.105,4.388,21.282 M7.135,21.435
	c0.009,0.221-0.957,0.994-1.164,0.985c-0.162-0.007-0.812-1.019-0.764-1.157c0.279-0.275,0.557-0.551,0.835-0.827v-0.017
	C6.248,20.48,7.125,21.213,7.135,21.435 M9.714,22.02c-0.006,0.148-0.681,0.541-0.83,0.562c-0.154,0.022-0.907-0.972-0.89-1.126
	c0.02-0.186,0.411-0.58,0.57-0.682v-0.018C8.851,20.841,9.726,21.728,9.714,22.02 M3.163,21.807
	c-0.103,0.059-0.207,0.118-0.311,0.177c-0.306,0-0.11-0.974,0-1.103v-0.018C3.134,20.916,3.306,21.574,3.163,21.807 M2.131,22.146
	c-0.09,0.006-0.18,0.012-0.27,0.017c-0.006-0.005-0.012-0.011-0.018-0.017c0-0.333,0.24-0.674,0.45-0.908
	C2.376,21.495,2.319,21.972,2.131,22.146 M5.501,22.804c-0.069,0.049-0.138,0.1-0.207,0.15c-0.17,0.097-0.882,0.483-1.063,0.41
	c-0.157-0.064-0.194-0.332-0.248-0.47c-0.399-1.014-0.067-0.816,0.689-1.283C5.032,21.827,5.344,22.443,5.501,22.804 M11.736,23.622
	c-0.066,0.013-0.133,0.024-0.198,0.036c-0.06,0.006-0.12,0.011-0.181,0.018c-0.09,0.018-0.18,0.035-0.27,0.053
	c-0.051-0.108-0.103-0.218-0.154-0.326c-0.064-0.197-0.474-1.124-0.405-1.256c0.096-0.185,0.487-0.322,0.668-0.411
	C11.607,21.858,12.237,23.432,11.736,23.622 M8.286,22.967c-0.082,0.134-1.262,0.813-1.387,0.777
	c-0.174-0.049-0.305-0.323-0.39-0.459c-0.071-0.136-0.143-0.274-0.214-0.41c0-0.024,1.043-0.884,1.171-0.979
	C7.681,21.952,8.406,22.769,8.286,22.967 M3.622,23.615c-0.112,0.183-0.444,0.198-0.625,0.275c-0.289,0-0.397-1.17-0.257-1.388
	c0.085-0.134,0.339-0.149,0.473-0.215C3.355,22.38,3.716,23.458,3.622,23.615 M10.601,23.783c-0.066,0.024-0.132,0.047-0.198,0.072
	c-0.235,0.059-0.469,0.117-0.703,0.177c-0.193,0-0.666-0.908-0.57-1.072c0.141-0.243,0.637-0.431,0.876-0.548
	C10.298,22.65,10.645,23.389,10.601,23.783 M2.167,24.157c-0.102,0.023-0.204,0.046-0.306,0.07c-0.461,0-0.371-1.273-0.171-1.507
	c0.09-0.106,0.241-0.113,0.369-0.149C2.376,22.655,2.481,23.95,2.167,24.157 M6.366,24.085c-0.034,0-1.151,0.791-1.405,0.873
	c-0.154-0.257-0.308-0.514-0.463-0.771c-0.257-0.495,0.802-0.779,1.147-0.991C5.936,23.282,6.24,23.827,6.366,24.085 M8.886,23.767
	c0.051,0.097,0.167,0.269,0.115,0.397c-0.048,0.118-1.188,0.682-1.373,0.758c0-0.009-0.356-0.49-0.391-0.573
	c-0.137-0.316,0.994-0.841,1.238-0.976C8.676,23.427,8.794,23.593,8.886,23.767 M12.002,24.063c0.088,0.113,0.056,0.33,0.059,0.485
	c0.006,0.423-0.006,1.004-0.557,0.94c-0.219-0.026-0.428-1.211-0.315-1.366c0.079-0.113,0.38-0.115,0.511-0.143
	C11.804,23.984,11.937,23.979,12.002,24.063 M4.473,25.188C4.349,25.291,4.225,25.396,4.1,25.5c-0.112,0.075-0.269,0.201-0.417,0.19
	c-0.226-0.017-0.765-1.122-0.629-1.308c0.251-0.111,0.501-0.221,0.752-0.332C3.939,24.135,4.509,25.065,4.473,25.188 M10.763,25.617
	c-0.059,0.012-0.12,0.023-0.18,0.035c-0.036,0.007-0.072,0.012-0.108,0.018c-0.066,0.013-0.132,0.024-0.198,0.037
	c-0.211,0-0.561-1.117-0.459-1.267c0.118-0.171,0.486-0.161,0.675-0.212C10.857,24.351,11.082,25.343,10.763,25.617 M6.947,24.848
	c0.051,0.11,0.102,0.221,0.152,0.331c-0.056,0.181-1.158,1.012-1.296,0.944c-0.123-0.13-0.246-0.259-0.37-0.389
	c-0.064-0.089-0.201-0.24-0.165-0.364c0.036-0.128,1.16-0.746,1.35-0.875C6.775,24.564,6.869,24.706,6.947,24.848 M3.061,26.071
	c-0.128,0.253-0.568,0.381-0.786,0.525c-0.279,0-0.774-1.503-0.608-1.753c0.108-0.165,0.517-0.218,0.698-0.277
	C2.53,24.622,3.121,25.953,3.061,26.071 M9.683,25.833c-0.049,0.094-0.994,0.544-1.12,0.505c-0.158-0.049-0.287-0.354-0.367-0.481
	c-0.087-0.139-0.264-0.355-0.241-0.538c0.034-0.268,0.98-0.627,1.221-0.717C9.38,24.69,9.791,25.619,9.683,25.833 M8.186,26.667
	c-0.136,0-0.773,0.661-0.991,0.747c-0.172-0.126-0.345-0.253-0.518-0.38c-0.128-0.123-0.371-0.262-0.393-0.446
	c-0.032-0.261,0.924-0.887,1.128-1.025C7.712,25.785,8.069,26.321,8.186,26.667 M5.471,26.538c-0.036,0.16-0.208,0.269-0.324,0.385
	c-0.096,0.094-0.203,0.256-0.347,0.256c-0.21,0-0.959-0.816-0.865-1.008c0.121-0.248,0.631-0.439,0.864-0.553
	C4.942,25.724,5.506,26.376,5.471,26.538 M11.826,25.954c-0.003,0.047-0.006,0.094-0.009,0.14c-0.08,0.332-0.194,0.626-0.405,0.893
	h-0.018v0.018h-0.018c0-0.335-0.099-0.791,0.072-1.086C11.574,25.932,11.7,25.943,11.826,25.954 M10.671,27.301
	c-0.241,0.025-0.427-0.953-0.394-1.168c0.175-0.053,0.349-0.106,0.523-0.161C11.132,26.082,11.002,27.265,10.671,27.301
	 M9.482,27.623c-0.186-0.021-0.679-0.737-0.589-0.896c0.128-0.225,0.516-0.312,0.735-0.398C10.127,26.408,10.369,27.72,9.482,27.623
	 M4.418,27.695c-0.014,0.223-0.38,0.558-0.539,0.717c-0.299,0-1.441-1.05-1.344-1.358c0.071-0.225,0.581-0.433,0.767-0.548
	C3.443,26.605,4.423,27.602,4.418,27.695 M6.846,27.76c0.024,0.156-0.172,0.374-0.301,0.446c-0.211,0.115-1.98-0.519-0.755-1.308
	v-0.018C5.962,26.925,6.817,27.579,6.846,27.76 M8.855,27.781c-0.092,0.073-0.184,0.145-0.276,0.218
	c-0.097,0.067-0.206,0.169-0.337,0.165c-0.154-0.007-0.291-0.139-0.406-0.225c-0.476-0.353,0.154-0.664,0.477-0.863
	C8.507,27.142,8.955,27.536,8.855,27.781 M6.124,28.7c0.063,0.142-0.21,0.528-0.323,0.608c-0.21,0.149-1.421-0.303-1.479-0.536
	c-0.056-0.222,0.39-0.687,0.548-0.824C5.064,28.033,6.06,28.552,6.124,28.7 M8.096,28.589c-0.069,0.064-0.139,0.126-0.208,0.19
	c-0.265,0.097-0.77-0.15-0.945-0.314c0.001-0.017,0.002-0.035,0.004-0.052c0.066-0.149,0.186-0.286,0.319-0.393
	C7.537,28.17,7.92,28.317,8.096,28.589 M7.61,29.444c-0.078,0.006-0.156,0.012-0.235,0.017c-0.341,0-0.75,0.043-1.045-0.053
	c-0.002-0.018-0.005-0.035-0.008-0.052c0.075-0.155,0.149-0.31,0.224-0.465C6.793,28.907,8.286,29.157,7.61,29.444 M19.665,30.512
	v0.018c-0.415,0-0.993-0.724-0.649-1.086C19.568,29.512,19.814,29.959,19.665,30.512 M30.874,30.619
	c-0.487,0-1.437-0.714-0.667-1.068C30.803,29.57,31.053,30.062,30.874,30.619 M29.126,30.512v0.018c-0.399,0-1.261-0.603-0.595-0.89
	C28.962,29.68,29.192,30.084,29.126,30.512 M8.979,30.494H8.961v0.018c-0.366,0-0.649-0.516-0.451-0.801
	C9.04,29.76,8.979,30.004,8.979,30.494 M10.691,29.869c0.12,0.136,0.002,0.678-0.165,0.734c-0.355,0.116-0.553-0.663-0.267-0.892
	C10.416,29.735,10.585,29.748,10.691,29.869 M33.36,30.619c-0.145,0-0.293,0.094-0.47,0.049c-0.381-0.097-0.821-0.556-0.376-0.885
	C33.055,29.833,33.165,30.197,33.36,30.619 M25.017,30.548c-0.293,0-1.029-0.385-0.685-0.748
	C24.692,29.868,25.084,30.118,25.017,30.548 M36.496,30.458c-0.169,0-0.328,0.023-0.482-0.03c-0.382-0.133-0.532-0.484-0.094-0.628
	C36.266,29.833,36.471,30.122,36.496,30.458 M15.342,30.718c-0.152,0.039-0.535-0.662-0.236-0.847
	C15.725,29.891,15.894,30.576,15.342,30.718 M22.079,30.619c-0.035,0.004-0.071,0.007-0.107,0.009
	c-0.3-0.034-0.925-0.402-0.523-0.739v-0.018C21.883,29.898,22.182,30.149,22.079,30.619 M12.619,30.762
	c-0.018,0.023-0.036,0.047-0.054,0.071c-0.306,0-0.808-0.395-0.577-0.73v-0.018C12.454,30.159,12.537,30.324,12.619,30.762
	 M69.282,28.466v-6.56c-3.403,2.337-6.847,3.526-10.25,3.526c-5.353,0-8.674-3.443-8.674-8.609c0-5.371,3.486-8.651,9.213-8.651
	c3.154,0,6.308,0.984,9.462,2.993v-6.56c-3.154-1.517-6.391-2.296-9.918-2.296c-9.835,0-16.061,5.985-16.061,14.513
	c0,4.182,1.577,7.871,4.399,10.536c2.739,2.542,6.474,3.935,10.997,3.935C62.393,31.295,65.921,30.352,69.282,28.466 M73.222,30.803
	h7.304V3.17h-7.304V30.803z M98.863,25.392c4.689,0,8.092-3.526,8.092-8.568c0-5.043-3.403-8.61-8.092-8.61
	c-4.689,0-8.093,3.567-8.093,8.61C90.77,21.866,94.174,25.392,98.863,25.392 M87.906,6.328c2.864-2.665,6.474-3.977,10.957-3.977
	c4.481,0,8.133,1.312,10.997,3.977c2.905,2.747,4.441,6.314,4.441,10.496s-1.536,7.748-4.441,10.454
	c-2.864,2.664-6.515,4.017-10.997,4.017c-4.483,0-8.093-1.353-10.957-4.017c-2.905-2.706-4.44-6.314-4.44-10.454
	C83.466,12.641,85.001,9.075,87.906,6.328 M131.769,10.96c0-2.132-1.244-3.198-3.818-3.198h-3.652v6.109h3.652
	C130.524,13.871,131.769,12.928,131.769,10.96 M117.162,2.802h10.458c7.512,0,11.289,2.46,11.289,7.175
	c0,2.46-1.287,4.387-3.777,5.494c3.942,1.23,5.893,3.608,5.893,7.297c0,5.371-3.734,8.036-11.205,8.036h-12.657V2.802z
	 M128.408,25.678c3.527,0,5.105-0.861,5.105-3.28c0-2.46-1.701-3.526-5.146-3.526h-4.067v6.805H128.408z"/>
</svg>
