<?xml version="1.0" encoding="utf-8"?>
<!-- Generator: Adobe Illustrator 17.0.1, SVG Export Plug-In . SVG Version: 6.00 Build 0)  -->
<!DOCTYPE svg PUBLIC "-//W3C//DTD SVG 1.1//EN" "http://www.w3.org/Graphics/SVG/1.1/DTD/svg11.dtd">
<svg version="1.1" id="Layer_1" xmlns="http://www.w3.org/2000/svg" xmlns:xlink="http://www.w3.org/1999/xlink" x="0px" y="0px"
	 width="29px" height="29px" viewBox="0 0 29 29" enable-background="new 0 0 29 29" xml:space="preserve">
<g>
	<path fill="#3C5A93" d="M29,27.343C29,28.254,28.254,29,27.343,29H1.657C0.746,29,0,28.254,0,27.343V1.657C0,0.746,0.746,0,1.657,0
		h25.686C28.254,0,29,0.746,29,1.657V27.343z"/>
	<rect x="2.071" y="22.786" fill="#6E84AF" width="24.857" height="4.143"/>
	<path fill="#FFFFFF" d="M16.571,26.929V16.267h-2.819v-3.839h2.819c0,0,0-1.573,0-3.279c0-2.576,1.665-4.942,5.502-4.942
		c1.554,0,2.703,0.149,2.703,0.149l-0.091,3.585c0,0-1.172-0.011-2.45-0.011c-1.384,0-1.605,0.638-1.605,1.696
		c0,0.837,0-1.783,0,2.803h4.166l-0.181,3.839H20.63v10.661H16.571z"/>
</g>
</svg>
