<?xml version="1.0" encoding="utf-8"?>
<!-- Generator: Adobe Illustrator 17.0.1, SVG Export Plug-In . SVG Version: 6.00 Build 0)  -->
<!DOCTYPE svg PUBLIC "-//W3C//DTD SVG 1.1//EN" "http://www.w3.org/Graphics/SVG/1.1/DTD/svg11.dtd">
<svg version="1.1" id="Layer_1" xmlns="http://www.w3.org/2000/svg" xmlns:xlink="http://www.w3.org/1999/xlink" x="0px" y="0px"
	 width="29px" height="29px" viewBox="0 0 29 29" enable-background="new 0 0 29 29" xml:space="preserve">
<g>
	<g>
		<path fill="#007CB1" d="M26.755,0H2.133C0.956,0,0,0.933,0,2.082V26.81c0,1.151,0.956,2.085,2.133,2.085h24.622
			c1.178,0,2.14-0.934,2.14-2.085V2.082C28.895,0.933,27.933,0,26.755,0z"/>
		<path fill="#FFFFFF" d="M4.282,10.833h4.287v13.789H4.282V10.833z M6.426,3.978c1.37,0,2.484,1.114,2.484,2.484
			c0,1.372-1.114,2.486-2.484,2.486c-1.374,0-2.484-1.114-2.484-2.486C3.942,5.092,5.052,3.978,6.426,3.978"/>
		<path fill="#FFFFFF" d="M11.257,10.833h4.111v1.883h0.058c0.572-1.084,1.971-2.227,4.056-2.227c4.337,0,5.138,2.855,5.138,6.569
			v7.563H20.34v-6.705c0-1.6-0.031-3.657-2.228-3.657c-2.23,0-2.57,1.742-2.57,3.541v6.821h-4.284V10.833z"/>
	</g>
</g>
</svg>
