<?xml version="1.0" encoding="utf-8"?>
<!-- Generator: Adobe Illustrator 17.0.1, SVG Export Plug-In . SVG Version: 6.00 Build 0)  -->
<!DOCTYPE svg PUBLIC "-//W3C//DTD SVG 1.1//EN" "http://www.w3.org/Graphics/SVG/1.1/DTD/svg11.dtd">
<svg version="1.1" id="Layer_1" xmlns="http://www.w3.org/2000/svg" xmlns:xlink="http://www.w3.org/1999/xlink" x="0px" y="0px"
	 width="449px" height="111px" viewBox="0 0 449 111" enable-background="new 0 0 449 111" xml:space="preserve">
<g>
	<defs>
		<rect id="SVGID_1_" x="134" width="352" height="111"/>
	</defs>
	<clipPath id="SVGID_2_">
		<use xlink:href="#SVGID_1_"  overflow="visible"/>
	</clipPath>
	<g clip-path="url(#SVGID_2_)">
		<path fill="#4C5367" d="M180.659,135.778c-0.275,0-0.5,0.531-0.673,1.406h1.33c-0.078-0.356-0.164-0.678-0.263-0.956l-0.349-0.446
			C180.688,135.78,180.672,135.778,180.659,135.778"/>
		<path fill="#4C5367" d="M181.316,137.185"/>
		<line fill="#4C5367" x1="181.316" y1="137.185" x2="179.986" y2="137.185"/>
		<path fill="#4C5367" d="M179.778,129.63c-0.171,2.282-0.29,4.904-0.377,7.555h0.143c0.088-2.406,0.173-4.82,0.233-7.237V129.63"/>
		<path fill="#4C5367" d="M179.545,137.185"/>
		<line fill="#4C5367" x1="179.545" y1="137.185" x2="179.401" y2="137.185"/>
		<path fill="#4C5367" d="M184.206,116.202c-1.932,0.002-4.219,14.603-2.643,17.03c0.111,0.164,0.232,0.244,0.362,0.244
			c0.623,0,1.434-1.828,2.094-4.834c0.796-3.444,1.498-9.406,0.67-11.924l-0.415-0.51
			C184.251,116.204,184.229,116.202,184.206,116.202"/>
		<path fill="#4C5367" d="M183.35,109.927l-0.097,0.031c-0.19,0.384-0.382,1.18-0.797,2.933c-0.732,3.349-1.434,7.875-2.039,11.255
			c-0.351,2.613-0.287,2.709-0.159,2.805c0.287-0.638,0.86-3.157,1.242-5.134c0.671-3.283,1.754-9.34,1.882-11.573L183.35,109.927"
			/>
		<path fill="#4C5367" d="M190.267,88.791c-1.339,3.091-2.359,5.834-2.996,7.555c-0.128,0.382-0.287,0.862-0.415,1.244l0.669-1.882
			L190.267,88.791"/>
		<path fill="#4C5367" d="M276.795,136.076c-1.453,0-2.786,0.408-3.935,1.109h7.932c-0.256-0.166-0.526-0.327-0.813-0.477
			C278.876,136.273,277.807,136.076,276.795,136.076"/>
		<path fill="#4C5367" d="M280.793,137.185"/>
		<line fill="#4C5367" x1="280.793" y1="137.185" x2="272.861" y2="137.185"/>
		<path fill="#4C5367" d="M200.534,78.879c-2.518,0.001-8.432,11.253-7.621,15.013c0.123,0.59,0.401,0.869,0.794,0.869
			c0.941,0,2.537-1.607,4.18-4.376c1.816-3.092,4.08-8.511,3.347-10.966l-0.287-0.415C200.822,78.918,200.684,78.879,200.534,78.879
			"/>
		<path fill="#4C5367" d="M199.731,72.681c-1.531,0.002-8.549,13.171-8.029,15.313c0.029,0.125,0.09,0.183,0.182,0.183
			c0.488,0,1.816-1.763,3.484-4.615c1.787-3.092,4.4-8.352,4.592-10.457l-0.064-0.351C199.85,72.705,199.795,72.681,199.731,72.681"
			/>
		<path fill="#4C5367" d="M194.088,80.736c-0.434,0.789-0.789,1.451-0.952,1.805L194.088,80.736 M201.202,68.298l-3.952,6.433
			l-3.162,6.005c0.503-0.915,1.115-2.001,1.664-2.977C197.761,74.174,200.065,70.216,201.202,68.298 M201.617,67.622l-0.128,0.19
			c-0.085,0.142-0.181,0.306-0.287,0.486L201.617,67.622"/>
		<path fill="#4C5367" d="M452.423,137.664 M452.423,137.664v0.318"/>
		<path fill="#4C5367" d="M340.808,138.015c-0.763-0.196-1.499-0.287-2.207-0.287"/>
		<path fill="#4C5367" d="M338.601,137.728"/>
		<path fill="#4C5367" d="M320.353,131.608c-3.656,0-6.573,2.446-7.802,5.576h15.146c-0.633-2.091-2.107-4.047-4.807-5.196
			C322.015,131.728,321.166,131.608,320.353,131.608"/>
		<path fill="#4C5367" d="M327.697,137.185"/>
		<line fill="#4C5367" x1="327.697" y1="137.185" x2="312.551" y2="137.185"/>
		<path fill="#4C5367" d="M302.552,124.808c-5.817,0-9.926,6.393-7.939,11.805c0.073,0.197,0.15,0.387,0.233,0.572h14.136
			c0.057-0.104,0.114-0.209,0.168-0.318c1.659-3.283,1.562-9.055-3.793-11.573C304.392,124.961,303.451,124.808,302.552,124.808"/>
		<path fill="#4C5367" d="M308.982,137.185"/>
		<line fill="#4C5367" x1="308.982" y1="137.185" x2="294.846" y2="137.185"/>
		<path fill="#4C5367" d="M285.589,117.458c-5.563,0-9.795,6.131-8.16,11.469c1.05,3.483,3.902,5.267,6.891,5.267
			c2.731,0,5.577-1.489,7.264-4.533c1.785-3.219,2.008-8.958-3.06-11.635C287.521,117.636,286.537,117.458,285.589,117.458"/>
		<path fill="#4C5367" d="M269.638,109.718c-5.255,0-9.544,5.883-8.309,11.177c0.816,3.537,3.537,5.378,6.474,5.378
			c2.57,0,5.305-1.41,7.076-4.326c1.88-3.157,2.454-8.832-2.231-11.573C271.631,109.922,270.617,109.718,269.638,109.718"/>
		<path fill="#4C5367" d="M212.493,62.786c-2.899,0-10.129,9.93-9.473,13.507c0.109,0.596,0.438,0.88,0.927,0.88
			c1.079,0,2.942-1.387,4.94-3.845c2.231-2.742,5.101-7.683,4.463-9.978l-0.318-0.415C212.875,62.834,212.693,62.786,212.493,62.786
			"/>
		<path fill="#4C5367" d="M211.813,56.898c-1.972,0-10.568,11.715-9.973,13.657c0.045,0.139,0.138,0.206,0.277,0.206
			c0.653,0,2.288-1.502,4.314-4.001c2.233-2.742,5.452-7.491,5.675-9.437l-0.19-0.413C211.882,56.902,211.849,56.898,211.813,56.898
			"/>
		<path fill="#4C5367" d="M213.636,52.031c-0.159,0.128-0.318,0.256-1.18,1.276l-2.39,2.806l-6.121,8.065
			c-0.479,0.702-0.574,0.861-0.702,1.084l0.033,0.064c0.477-0.415,1.657-1.818,3.537-4.177c0.033-0.064,5.42-6.791,6.759-8.894
			l0.095-0.161L213.636,52.031"/>
		<path fill="#4C5367" d="M450.223,118.472l-0.033,0.287c0.064,2.167,1.69,15.971,2.041,16.29c0.031-0.19,0.064-0.413-0.031-1.721
			c-0.223-3.221-0.83-7.524-1.18-10.743l-0.287-1.882C450.382,118.567,450.287,118.503,450.223,118.472"/>
		<path fill="#4C5367" d="M431.372,131.797c-0.017,0-0.036,0-0.053,0c-1.813,0.446-2.888,2.683-3.292,5.388h7.342
			C434.772,134.388,433.466,131.797,431.372,131.797"/>
		<path fill="#4C5367" d="M435.369,137.185"/>
		<line fill="#4C5367" x1="435.369" y1="137.185" x2="428.027" y2="137.185"/>
		<path fill="#4C5367" d="M421.212,132.466c-2.15,0.218-3.553,2.19-4.21,4.718h8.544
			C424.834,134.747,423.438,132.646,421.212,132.466"/>
		<path fill="#4C5367" d="M425.547,137.185"/>
		<line fill="#4C5367" x1="425.547" y1="137.185" x2="417.002" y2="137.185"/>
		<path fill="#4C5367" d="M409.16,132.02c-2.778-0.014-4.616,2.271-5.396,5.165h10.231
			C413.275,134.673,411.737,132.419,409.16,132.02"/>
		<path fill="#4C5367" d="M413.994,137.185"/>
		<line fill="#4C5367" x1="413.994" y1="137.185" x2="403.763" y2="137.185"/>
		<path fill="#4C5367" d="M394.764,130.374c-3.604,0-5.908,3.172-6.443,6.811h12.483c-0.486-2.989-2.15-6.054-5.512-6.791
			C395.114,130.38,394.937,130.374,394.764,130.374"/>
		<path fill="#4C5367" d="M400.804,137.185"/>
		<line fill="#4C5367" x1="400.804" y1="137.185" x2="388.321" y2="137.185"/>
		<path fill="#4C5367" d="M378.615,127.502c-4.931,0-7.754,5-7.123,9.683h14.107c0.351-3.49-1.102-8.302-5.832-9.596
			C379.37,127.53,378.986,127.502,378.615,127.502"/>
		<path fill="#4C5367" d="M385.472,138.046c0.055-0.275,0.097-0.564,0.126-0.861"/>
		<line fill="#4C5367" x1="385.599" y1="137.185" x2="371.492" y2="137.185"/>
		<path fill="#4C5367" d="M361.499,123.47c-6,0-9.324,7.344-6.505,12.632c0.206,0.389,0.433,0.751,0.674,1.083h11.487
			c0.569-0.778,1.026-1.705,1.325-2.773c0.989-3.444-0.064-9.054-5.388-10.776C362.544,123.524,362.013,123.47,361.499,123.47"/>
		<path fill="#4C5367" d="M367.155,137.185"/>
		<line fill="#4C5367" x1="367.155" y1="137.185" x2="355.669" y2="137.185"/>
		<path fill="#4C5367" d="M344.269,118.534c-5.881,0-9.504,6.948-7.031,12.211c1.389,2.944,3.995,4.368,6.618,4.368
			c2.973,0,5.965-1.832,7.218-5.355c1.18-3.38,0.479-8.99-4.814-10.968C345.573,118.615,344.907,118.534,344.269,118.534"/>
		<path fill="#4C5367" d="M327.253,112.829c-5.763,0.002-9.662,6.547-7.517,11.795c1.244,3.082,3.933,4.606,6.682,4.606
			c2.882,0,5.831-1.676,7.249-4.988c1.436-3.284,1.084-8.862-4.08-11.063C328.783,112.94,328.003,112.829,327.253,112.829"/>
		<path fill="#4C5367" d="M310.66,106.487c-5.594,0-9.728,6.196-7.982,11.379c1.079,3.203,3.793,4.814,6.625,4.814
			c2.776,0,5.666-1.546,7.244-4.655c1.626-3.188,1.69-8.736-3.283-11.096C312.373,106.627,311.499,106.487,310.66,106.487"/>
		<path fill="#4C5367" d="M294.805,99.645c-5.386,0.002-9.755,5.874-8.417,10.952c0.846,3.286,3.534,4.966,6.419,4.966
			c2.657,0,5.483-1.423,7.194-4.328c1.818-3.092,2.264-8.576-2.423-11.063C296.64,99.81,295.707,99.645,294.805,99.645"/>
		<path fill="#4C5367" d="M227.822,38.642c-1.37,0.192-12.21,10.553-12.083,11.54c0.543-0.095,2.679-1.975,4.369-3.506
			c1.752-1.595,6.535-6.09,7.683-7.747L227.822,38.642"/>
		<path fill="#4C5367" d="M225.195,40.406c-0.733,0.649-1.463,1.304-2.186,1.967v0.031L225.195,40.406 M226.079,39.633l-0.488,0.412
			l-0.396,0.361C225.489,40.147,225.783,39.889,226.079,39.633 M228.651,37.462c-0.863,0.706-1.721,1.432-2.572,2.171
			L228.651,37.462"/>
		<path fill="#4C5367" d="M333.853,94.864c-5.338,0-9.068,6.304-7.168,11.27c1.107,2.89,3.556,4.305,6.081,4.305
			c2.71,0,5.509-1.631,6.83-4.815c1.275-3.157,0.988-8.481-3.698-10.458C335.197,94.959,334.514,94.864,333.853,94.864"/>
		<path fill="#4C5367" d="M290.87,76.369c-4.89,0-9.584,5.171-9.072,9.776c0.337,3.113,2.66,4.725,5.381,4.725
			c2.404,0,5.121-1.261,7.052-3.866c2.072-2.773,3.221-7.747-0.67-10.073C292.679,76.544,291.771,76.369,290.87,76.369"/>
		<path fill="#4C5367" d="M267.554,62.698c-4.62,0-10.125,5.082-10.177,9.387c-0.017,2.703,1.85,4.101,4.305,4.101
			c2.148,0,4.745-1.069,6.917-3.271c2.486-2.551,4.622-7.175,1.562-9.565C269.36,62.898,268.474,62.698,267.554,62.698"/>
		<path fill="#4C5367" d="M241.95,31.765c-2.546,0-12.171,6.863-12.915,9.554c-0.135,0.467,0.05,0.69,0.493,0.69
			c0.922,0,2.959-0.965,5.564-2.73c2.708-1.849,7.14-5.388,7.46-7.077l-0.033-0.159C242.436,31.851,242.239,31.765,241.95,31.765"/>
		<path fill="#4C5367" d="M235.535,32.192c-0.993,0.669-1.619,1.109-1.751,1.221C234.338,33.031,234.926,32.619,235.535,32.192
			 M247.397,24.422l-0.062,0.033l-3.826,2.295c-2.425,1.522-5.393,3.629-7.973,5.442c0.681-0.462,1.536-1.031,2.522-1.679
			c3.029-2.008,6.088-3.954,9.117-5.929L247.397,24.422"/>
		<path fill="#4C5367" d="M340.081,77.958c-5.021,0-8.574,6.675-6.446,11.246c1.064,2.271,3.027,3.362,5.063,3.362
			c2.48,0,5.064-1.619,6.254-4.701c1.149-2.934,0.926-7.906-3.188-9.66C341.19,78.038,340.628,77.958,340.081,77.958"/>
		<path fill="#4C5367" d="M291.527,55.862c-4.616,0.002-10.066,4.822-9.985,8.826c0.034,2.351,1.861,3.722,4.291,3.722
			c2.084,0,4.613-1.008,6.836-3.276c2.359-2.359,4.336-6.663,1.307-8.735C293.215,56.03,292.385,55.862,291.527,55.862"/>
		<path fill="#4C5367" d="M281.915,49.852c-4.315,0-10.232,4.077-10.734,8.174c-0.29,2.435,1.36,3.698,3.712,3.698
			c2.05,0,4.636-0.958,6.936-2.933c2.613-2.231,5.1-6.312,2.487-8.385C283.624,50.025,282.804,49.852,281.915,49.852"/>
		<path fill="#4C5367" d="M273.502,43.784c-4.324,0-10.646,4.115-11.248,8.121c-0.318,2.055,1.081,3.103,3.205,3.103
			c1.928,0,4.454-0.865,6.837-2.626c2.806-2.072,5.801-5.929,3.665-7.97C275.291,43.979,274.443,43.784,273.502,43.784"/>
		<path fill="#4C5367" d="M262.191,32.175c-3.953,0.002-11.643,4.314-12.594,7.775c-0.372,1.351,0.451,2.022,1.969,2.022
			c1.596,0,3.962-0.742,6.512-2.214c3.093-1.785,7.014-5.132,5.993-6.981C263.666,32.36,263.008,32.175,262.191,32.175"/>
		<path fill="#4C5367" d="M259.356,22.743c-3.017,0-13.149,5.248-13.934,7.578c-0.145,0.436,0.107,0.643,0.678,0.643
			c1.06,0,3.217-0.719,5.952-2.046c2.966-1.467,7.844-4.304,8.131-5.706l-0.033-0.159C260.044,22.84,259.765,22.743,259.356,22.743"
			/>
		<path fill="#4C5367" d="M260.988,19.173c-0.982,0-4.03,1.07-7.597,2.828c-3.38,1.688-6.951,3.952-6.824,4.622
			c0.059,0.035,0.145,0.052,0.256,0.052c0.903,0,3.413-1.093,5.514-2.06c0.064-0.031,7.78-3.634,8.927-5.133l0.033-0.223
			C261.253,19.201,261.147,19.173,260.988,19.173"/>
		<path fill="#4C5367" d="M264.421,16.357c-1.307,0-14.091,5.993-14.697,6.885c0.223-0.031,0.764-0.19,4.973-2.134
			c8.29-3.795,9.024-4.241,9.534-4.592L264.421,16.357"/>
		<path fill="#4C5367" d="M345.765,62.426c-4.371,0.002-7.622,6.208-5.881,10.328c0.872,2.039,2.518,3.004,4.248,3.004
			c2.193,0,4.52-1.552,5.571-4.438c0.957-2.615,0.796-7.237-2.615-8.704C346.638,62.487,346.197,62.426,345.765,62.426"/>
		<path fill="#4C5367" d="M334.738,58.251c-4.385,0-8.351,5.67-7.097,9.658c0.611,1.987,2.33,3.058,4.259,3.058
			c2.095,0,4.436-1.263,5.879-3.984c1.372-2.549,1.818-6.885-1.467-8.48C335.787,58.33,335.261,58.251,334.738,58.251"/>
		<path fill="#4C5367" d="M305.117,43.981c-4.156,0-9.878,3.866-10.281,7.572c-0.204,2.03,1.346,3.203,3.578,3.203
			c1.937,0,4.39-0.882,6.656-2.852c2.39-2.072,4.623-5.77,2.168-7.493C306.615,44.116,305.893,43.981,305.117,43.981"/>
		<path fill="#4C5367" d="M296.956,38.956c-4.264,0-10.689,3.819-11.142,7.305c-0.22,1.747,1.136,2.753,3.24,2.753
			c1.854,0,4.289-0.784,6.738-2.531c2.487-1.752,5.611-5.228,3.38-7.045C298.56,39.107,297.8,38.956,296.956,38.956"/>
		<path fill="#4C5367" d="M278.067,19.915c-4.001,0-13.17,3.513-13.932,5.879c-0.213,0.67,0.367,0.995,1.503,0.995
			c1.41,0,3.674-0.502,6.339-1.474c2.105-0.796,8.067-3.347,7.811-4.878C279.537,20.074,278.919,19.915,278.067,19.915"/>
		<path fill="#4C5367" d="M277.655,16.213c-3.7,0.002-13.517,3.491-14.349,5.532c-0.176,0.415,0.178,0.617,0.951,0.617
			c1.185,0,3.354-0.476,6.094-1.382c2.297-0.766,8.321-2.998,8.672-4.241l-0.031-0.126
			C278.826,16.336,278.347,16.213,277.655,16.213"/>
		<path fill="#4C5367" d="M279.086,13.275c-3.233,0-13.875,3.423-14.792,5.059c-0.111,0.202,0.055,0.302,0.474,0.302
			c0.893,0,2.93-0.455,5.839-1.323c0.351-0.095,8.322-2.519,9.34-3.698l0.033-0.095C279.885,13.349,279.568,13.273,279.086,13.275"
			/>
		<path fill="#4C5367" d="M282.102,10.954c-2.408,0-13.277,3.227-15.034,4.575v0.128c0.021,0,0.043,0,0.069,0
			c0.285,0,1.007-0.053,5.478-1.34c5.644-1.593,8.96-2.678,9.788-3.155l0.126-0.128C282.462,10.978,282.315,10.954,282.102,10.954"
			/>
		<path fill="#4C5367" d="M271.551,13.418c-0.007,0.002-0.014,0.003-0.02,0.005C271.531,13.424,271.537,13.422,271.551,13.418
			 M271.636,13.392c-0.038,0.012-0.068,0.021-0.085,0.026C271.579,13.41,271.608,13.401,271.636,13.392 M286.611,9.248
			c-0.159,0.031-0.51,0.064-1.946,0.382c-3.949,1.012-9.119,2.586-13.029,3.762c0.422-0.126,2.101-0.626,4.677-1.339
			c3.349-0.957,6.759-1.69,10.075-2.679L286.611,9.248"/>
		<path fill="#4C5367" d="M342.266,45.322c-3.713,0-7.889,5.27-6.559,8.942c0.524,1.429,1.757,2.18,3.179,2.18
			c1.782,0,3.859-1.178,5.206-3.679c1.211-2.198,1.785-6.024-0.702-7.268C343.025,45.377,342.648,45.322,342.266,45.322"/>
		<path fill="#4C5367" d="M334.036,41.805c-3.577,0.002-8.368,4.26-8.084,7.74c0.14,1.726,1.434,2.664,3.117,2.664
			c1.768,0,3.968-1.033,5.715-3.269c1.626-2.072,2.868-5.611,0.542-6.919C334.924,41.875,334.489,41.805,334.036,41.805"/>
		<path fill="#4C5367" d="M326.208,38.055c-3.637,0-9.006,3.747-9.311,6.964c-0.145,1.705,1.124,2.659,2.96,2.659
			c1.762,0,4.047-0.881,6.095-2.819c2.008-1.913,3.89-5.196,1.754-6.535C327.26,38.14,326.754,38.055,326.208,38.055"/>
		<path fill="#4C5367" d="M318.916,34.186c-3.919,0-9.99,3.551-10.371,6.591c-0.178,1.432,0.995,2.24,2.807,2.24
			c1.738,0,4.063-0.743,6.342-2.399c1.88-1.372,5.037-4.655,3.029-6.09C320.213,34.293,319.597,34.186,318.916,34.186"/>
		<path fill="#4C5367" d="M312.385,30.229c-3.942,0-10.338,2.997-11.236,5.799c-0.476,1.427,0.625,2.257,2.562,2.257
			c1.698,0,4.039-0.638,6.524-2.067c2.487-1.434,5.865-4.208,4.208-5.578C313.909,30.357,313.199,30.229,312.385,30.229"/>
		<path fill="#4C5367" d="M296.697,15.228c-4.431,0-12.749,2.065-13.657,3.904c-0.289,0.577,0.433,0.872,1.875,0.872
			c1.424,0,3.548-0.287,6.095-0.872c0.064-0.033,8.449-1.977,8.321-3.285C299.007,15.413,298.029,15.226,296.697,15.228"/>
		<path fill="#4C5367" d="M296.358,12.373c-4.374,0-13.22,1.839-14.052,3.378c-0.197,0.396,0.375,0.595,1.553,0.595
			c1.292,0,3.31-0.239,5.844-0.723c0.349-0.064,8.639-1.593,9.053-2.677C298.608,12.543,297.691,12.373,296.358,12.373"/>
		<path fill="#4C5367" d="M297.224,10.059c-4.443,0-13.792,1.721-14.121,2.982c0.05,0.068,0.161,0.228,1.155,0.228
			c0.915,0,2.581-0.137,5.635-0.611c1.467-0.192,8.768-1.339,9.565-2.105v-0.095C299.225,10.181,298.395,10.059,297.224,10.059"/>
		<path fill="#4C5367" d="M299.485,8.236c-4.214,0-13.379,1.434-14.053,2.446c0.085,0.061,0.27,0.107,0.735,0.107
			c0.764,0,2.285-0.125,5.353-0.521c8.832-1.115,9.596-1.499,9.852-1.659l0.064-0.128C301.151,8.311,300.447,8.236,299.485,8.236"/>
		<path fill="#4C5367" d="M303.235,6.967c-3.944,0-13.578,1.384-14.074,1.961c0.056,0.01,0.132,0.016,0.235,0.016
			c0.547,0,1.87-0.149,5.089-0.524c9.342-1.02,9.342-1.02,10.011-1.212l0.095-0.031l0.033-0.097
			C304.344,7.001,303.861,6.967,303.235,6.967"/>
		<path fill="#4C5367" d="M298.103,7.249c-1.97,0.225-3.44,0.415-3.872,0.5C295.415,7.593,296.74,7.42,298.103,7.249 M308.478,6.266
			c-0.493,0-1.386,0.035-2.993,0.144c-2.195,0.207-4.859,0.522-7.382,0.839c0.213-0.024,0.431-0.049,0.654-0.073
			c3.316-0.32,6.632-0.446,9.947-0.83l0.223-0.062C308.839,6.273,308.699,6.266,308.478,6.266"/>
		<path fill="#4C5367" d="M313.837,6.028c-0.892,0-1.69,0.033-2.328,0.064L313.837,6.028"/>
		<path fill="#4C5367" d="M343.465,31.938c-3.018,0-7.835,3.995-7.662,6.737c0.086,1.123,0.938,1.707,2.121,1.707
			c1.466,0,3.442-0.903,5.085-2.792c1.115-1.307,3.029-4.526,1.339-5.516C344.079,31.981,343.781,31.938,343.465,31.938"/>
		<path fill="#4C5367" d="M338.046,29.357c-3.06,0-8.793,3.134-9.16,5.841c-0.152,1.133,0.685,1.743,2.013,1.743
			c1.477,0,3.56-0.752,5.573-2.38c1.499-1.213,4.113-4.018,2.615-5.037C338.796,29.411,338.445,29.357,338.046,29.357"/>
		<path fill="#4C5367" d="M332.92,26.688c-3.385,0-10.035,2.807-10.476,5.258c-0.168,0.932,0.63,1.446,1.996,1.446
			c1.487,0,3.648-0.609,5.974-1.956c1.436-0.829,5.229-3.475,3.826-4.526C333.907,26.757,333.453,26.688,332.92,26.688"/>
		<path fill="#4C5367" d="M328.095,23.928c-3.66,0-10.412,2.171-11.388,4.385c-0.391,0.927,0.413,1.447,1.975,1.447
			c1.501,0,3.703-0.481,6.218-1.543c1.657-0.733,6.152-2.964,5.004-3.985C329.491,24.023,328.861,23.928,328.095,23.928"/>
		<path fill="#4C5367" d="M323.792,21.129c-4.035,0-11.213,1.776-12.123,3.772c-0.335,0.756,0.49,1.202,2.152,1.202
			c1.486,0,3.643-0.356,6.233-1.171c0.064,0,7.142-2.263,6.089-3.411C325.687,21.25,324.847,21.129,323.792,21.129"/>
		<path fill="#4C5367" d="M319.895,18.365c-4.207,0-10.919,1.242-12.211,2.933c-0.536,0.69,0.24,1.219,2.354,1.219
			c1.399,0,3.386-0.233,5.967-0.804c0.064-0.033,7.778-1.754,7.077-2.838C322.579,18.524,321.398,18.365,319.895,18.365"/>
		<path fill="#4C5367" d="M279.916,92.423c-5.125,0-9.686,5.55-8.799,10.554c0.578,3.317,3.153,5.045,6.029,5.045
			c2.515,0,5.262-1.321,7.106-4.058c2.008-2.996,2.869-8.352-1.467-10.935C281.83,92.612,280.863,92.423,279.916,92.423"/>
		<path fill="#4C5367" d="M278.575,69.602c-4.89,0-10.143,5.415-9.658,9.878c0.299,2.729,2.344,4.12,4.843,4.12
			c2.288,0,4.959-1.168,7.017-3.546c2.295-2.678,3.952-7.491,0.446-9.85C280.379,69.789,279.483,69.602,278.575,69.602"/>
		<path fill="#4C5367" d="M194.741,131.705c-1.792,0-3.181,2.397-3.796,5.48h7.444c-0.299-1.813-0.922-3.511-2.001-4.718
			c-0.318-0.254-0.669-0.572-1.147-0.701C195.072,131.724,194.905,131.705,194.741,131.705"/>
		<path fill="#4C5367" d="M198.389,137.185"/>
		<line fill="#4C5367" x1="198.389" y1="137.185" x2="190.945" y2="137.185"/>
		<path fill="#4C5367" d="M187.959,123.507c-2.453,0.002-4.231,8.373-3.366,13.678h4.793c0.073-0.244,0.144-0.498,0.211-0.764
			c0.861-3.38,1.244-9.404-0.574-12.273c-0.223-0.223-0.478-0.51-0.796-0.605C188.136,123.519,188.048,123.507,187.959,123.507"/>
		<path fill="#4C5367" d="M189.386,137.185"/>
		<line fill="#4C5367" x1="189.386" y1="137.185" x2="184.593" y2="137.185"/>
		<path fill="#4C5367" d="M239.395,139.162l-0.638-0.318c-0.776-0.334-1.543-0.488-2.285-0.488"/>
		<path fill="#4C5367" d="M236.472,138.356"/>
		<path fill="#4C5367" d="M222.742,129.652c-3.11,0-5.824,3.412-6.495,7.532h12.305c-0.121-2.518-1.022-5.068-3.217-6.726
			l-0.573-0.318C224.081,129.806,223.403,129.652,222.742,129.652"/>
		<path fill="#4C5367" d="M228.552,137.185"/>
		<line fill="#4C5367" x1="228.552" y1="137.185" x2="216.247" y2="137.185"/>
		<path fill="#4C5367" d="M210.995,120.926c-4.264,0-7.859,8.269-5.585,14.219c0.318,0.832,0.716,1.51,1.168,2.039h5.914
			c0.751-0.727,1.442-1.726,2.006-2.996c1.498-3.316,2.072-9.406-1.307-12.465l-0.989-0.574
			C211.796,120.997,211.392,120.926,210.995,120.926"/>
		<path fill="#4C5367" d="M212.491,137.185h-5.914c0.811,0.951,1.797,1.422,2.823,1.422
			C210.438,138.607,211.515,138.127,212.491,137.185"/>
		<path fill="#4C5367" d="M201.492,112.357c-3.935,0.002-7.576,10.011-5.104,15.454c0.668,1.475,1.622,2.181,2.664,2.181
			c1.548,0,3.285-1.56,4.542-4.476c1.37-3.124,2.454-9.245-0.318-12.402l-0.797-0.541
			C202.149,112.427,201.821,112.357,201.492,112.357"/>
		<path fill="#4C5367" d="M194.703,104.148c-3.094,0-6.989,11.151-5.201,15.949c0.381,1.005,0.948,1.482,1.607,1.482
			c1.219,0,2.75-1.636,3.971-4.575c1.404-3.347,2.584-9.342,0.83-12.209l-0.574-0.479
			C195.13,104.202,194.919,104.148,194.703,104.148"/>
		<path fill="#4C5367" d="M190.984,96.813c-2.326,0.002-6.69,13.422-5.372,16.653c0.14,0.335,0.334,0.497,0.569,0.497
			c0.792,0,2.053-1.811,3.257-4.833c1.372-3.38,2.9-9.278,2.136-11.796l-0.479-0.508C191.059,96.816,191.022,96.813,190.984,96.813"
			/>
		<path fill="#4C5367" d="M190.14,90.512c-0.861,0.351-6.695,15.335-5.739,16.864c0.541-0.254,1.785-3.347,2.486-5.165
			c1.212-3.188,3.189-9.053,3.348-11.317L190.14,90.512"/>
		<path fill="#4C5367" d="M260.172,127.971c-4.547,0-8.029,4.431-7.944,9.214h15.11c0.361-3.029-0.557-6.512-4.001-8.511
			C262.248,128.189,261.184,127.969,260.172,127.971"/>
		<path fill="#4C5367" d="M267.338,137.185"/>
		<line fill="#4C5367" x1="267.338" y1="137.185" x2="252.228" y2="137.185"/>
		<path fill="#4C5367" d="M245.027,119.58c-5.168,0-9.137,6.663-7.417,12.281c1.007,3.203,3.431,4.832,6.002,4.832
			c2.394,0,4.913-1.415,6.528-4.289c1.816-3.252,2.326-9.119-2.136-12.083C246.989,119.81,245.987,119.58,245.027,119.58"/>
		<path fill="#4C5367" d="M231.536,111.05c-4.713,0-8.704,6.566-7.443,12.14c0.73,3.207,2.882,4.845,5.253,4.845
			c2.177,0,4.542-1.384,6.159-4.208c1.849-3.188,2.679-9.022-1.244-12.019C233.349,111.285,232.428,111.05,231.536,111.05"/>
		<path fill="#4C5367" d="M220.075,102.455c-4.206,0-8.672,6.914-7.396,12.765c0.605,2.754,2.283,4.132,4.215,4.132
			c1.939,0,4.135-1.387,5.763-4.165c1.882-3.155,3.029-8.958-0.254-11.923l-0.479-0.32
			C221.328,102.609,220.705,102.455,220.075,102.455"/>
		<path fill="#4C5367" d="M210.735,94.054c-4.089,0.002-8.711,8.356-7.142,13.96c0.52,1.844,1.626,2.736,2.949,2.736
			c1.676,0,3.701-1.429,5.339-4.17c1.882-3.126,3.348-8.832,0.828-11.732l-0.796-0.543
			C211.531,94.136,211.135,94.054,210.735,94.054"/>
		<path fill="#4C5367" d="M204.147,86.044c-3.338,0-8.378,9.281-7.377,14.318c0.282,1.38,0.972,2.038,1.875,2.038
			c1.351,0,3.177-1.472,4.82-4.205c1.849-3.093,3.698-8.703,2.008-11.476l-0.541-0.479
			C204.685,86.107,204.422,86.044,204.147,86.044"/>
		<path fill="#4C5367" d="M255.019,101.673c-5.182,0-9.63,6.301-8.292,11.634c0.794,3.127,3.134,4.717,5.73,4.717
			c2.41,0,5.039-1.366,6.863-4.142c2.008-3.062,2.933-8.672-1.307-11.478C257.012,101.9,256.002,101.673,255.019,101.673"/>
		<path fill="#4C5367" d="M242.078,93.515c-4.77,0-9.311,6.095-8.486,11.343c0.488,3.138,2.579,4.746,5.028,4.746
			c2.207,0,4.704-1.306,6.578-3.98c2.103-2.997,3.411-8.514-0.32-11.35C243.962,93.75,243.016,93.515,242.078,93.515"/>
		<path fill="#4C5367" d="M231.069,85.351c-4.538,0.002-9.385,6.637-8.634,11.76c0.403,2.679,2.057,4.027,4.094,4.027
			c1.989,0,4.346-1.285,6.268-3.866c2.167-2.933,3.824-8.321,0.764-11.159C232.767,85.586,231.923,85.351,231.069,85.351"/>
		<path fill="#4C5367" d="M222.267,77.27c-3.937,0.002-9.437,6.893-8.854,12.191c0.246,2.221,1.455,3.316,3.063,3.316
			c1.738,0,3.942-1.278,5.895-3.795c2.233-2.869,4.305-8.129,1.913-10.904l-0.382-0.318C223.408,77.424,222.855,77.27,222.267,77.27
			"/>
		<path fill="#4C5367" d="M215.857,69.578c-3.598,0-9.714,8.162-9.012,13.028c0.199,1.348,0.934,1.994,1.965,1.994
			c1.457,0,3.504-1.29,5.464-3.715c2.231-2.807,4.686-7.939,3.124-10.586l-0.256-0.254
			C216.774,69.725,216.337,69.578,215.857,69.578"/>
		<path fill="#4C5367" d="M266.229,84.913c-5.099,0-9.918,5.879-8.98,10.859c0.548,2.992,2.76,4.52,5.334,4.52
			c2.365,0,5.035-1.289,7.004-3.914c2.167-2.9,3.475-8.129-0.446-10.776C268.185,85.128,267.203,84.913,266.229,84.913"/>
		<path fill="#4C5367" d="M254.127,77.31c-4.753,0.002-9.741,5.606-9.344,10.461c0.237,2.973,2.219,4.506,4.686,4.506
			c2.188,0,4.756-1.205,6.823-3.677c2.327-2.806,4.049-7.906,0.638-10.553C256.036,77.538,255.087,77.31,254.127,77.31"/>
		<path fill="#4C5367" d="M243.822,69.708c-4.575,0-9.98,5.983-9.686,10.698c0.163,2.532,1.757,3.809,3.861,3.809
			c2.001,0,4.466-1.157,6.595-3.49c2.456-2.678,4.623-7.65,1.787-10.266C245.591,69.94,244.723,69.708,243.822,69.708"/>
		<path fill="#4C5367" d="M235.493,62.201c-4.281,0-10.132,6.36-9.997,10.904c0.062,2.065,1.29,3.086,3.023,3.086
			c1.799,0,4.142-1.1,6.286-3.276c2.518-2.615,5.1-7.398,2.933-9.947C237.083,62.437,236.319,62.201,235.493,62.201"/>
		<path fill="#4C5367" d="M229.576,55.006c-3.802,0-10.177,6.87-10.394,11.085c-0.088,1.591,0.727,2.366,2.026,2.366
			c1.536,0,3.75-1.086,5.945-3.195c2.583-2.487,5.58-7.111,4.177-9.532C230.863,55.229,230.261,55.006,229.576,55.006"/>
		<path fill="#4C5367" d="M226.503,48.644c-3.122,0-10.876,7.671-11.018,11.549c-0.035,0.825,0.365,1.218,1.062,1.218
			c1.192,0,3.254-1.147,5.505-3.259c2.613-2.421,6.057-6.791,5.516-8.894l-0.128-0.223
			C227.219,48.767,226.897,48.644,226.503,48.644"/>
		<path fill="#4C5367" d="M225.973,43.182c-2.307,0-11.604,9.14-11.604,11.687c-0.009,0.287,0.131,0.425,0.394,0.425
			c0.787,0,2.676-1.231,4.993-3.359c2.614-2.359,6.408-6.503,6.662-8.288l-0.095-0.351C226.238,43.218,226.12,43.18,225.973,43.182"
			/>
		<path fill="#4C5367" d="M318.826,89.106c-5.232,0-9.34,5.905-7.89,10.81c0.91,3.034,3.371,4.556,5.993,4.556
			c2.615,0,5.391-1.515,6.951-4.556c1.562-3.029,1.754-8.255-2.741-10.424C320.353,89.227,319.578,89.106,318.826,89.106"/>
		<path fill="#4C5367" d="M304.402,82.9c-5.07,0.002-9.501,5.523-8.515,10.29c0.643,3.098,3.067,4.68,5.758,4.68
			c2.519,0,5.27-1.384,7.028-4.201c1.849-2.903,2.519-8.034-1.754-10.299C306.077,83.049,305.231,82.9,304.402,82.9"/>
		<path fill="#4C5367" d="M258.02,55.772c-4.54,0-10.395,5.26-10.527,9.491c-0.067,2.297,1.46,3.463,3.6,3.463
			c1.987,0,4.504-1.006,6.761-3.049c2.646-2.39,5.26-6.822,2.742-9.181C259.835,55.995,258.956,55.772,258.02,55.772"/>
		<path fill="#4C5367" d="M250.474,48.968c-4.334,0-10.749,5.507-11.014,9.535c-0.128,1.898,1.06,2.845,2.861,2.845
			c1.802,0,4.217-0.947,6.543-2.845c2.774-2.262,5.834-6.503,3.921-8.799C252.146,49.194,251.352,48.968,250.474,48.968"/>
		<path fill="#4C5367" d="M245.191,42.504c-3.923,0-11.097,5.863-11.661,9.465c-0.211,1.489,0.628,2.219,2.048,2.219
			c1.588,0,3.899-0.913,6.272-2.698c2.869-2.136,6.377-6.152,5.133-8.321C246.542,42.708,245.923,42.504,245.191,42.504"/>
		<path fill="#4C5367" d="M242.36,36.684c-3.397,0-11.942,6.391-12.306,9.833c-0.087,0.791,0.349,1.169,1.157,1.169
			c1.273,0,3.468-0.944,5.984-2.7c2.901-2.072,6.824-5.803,6.377-7.683l-0.128-0.223C243.206,36.807,242.834,36.684,242.36,36.684"
			/>
		<path fill="#4C5367" d="M243.654,27.695c-1.801,0-13.377,8.135-13.408,9.513c0.029,0.019,0.069,0.029,0.123,0.029
			c0.702,0,3.411-1.706,5.042-2.804c1.977-1.308,7.301-5.006,8.385-6.473l0.031-0.223C243.787,27.708,243.73,27.695,243.654,27.695"
			/>
		<path fill="#4C5367" d="M326.901,72.941c-4.973,0-9.093,6.19-7.453,10.653c0.867,2.349,2.85,3.491,4.999,3.491
			c2.43,0,5.069-1.462,6.541-4.288c1.498-2.806,1.785-7.65-2.136-9.532C328.195,73.043,327.541,72.941,326.901,72.941"/>
		<path fill="#4C5367" d="M314.35,67.529c-4.632,0-9.188,5.173-8.579,9.433c0.408,2.802,2.522,4.222,4.967,4.222
			c2.342,0,4.988-1.3,6.734-3.935c1.818-2.678,2.678-7.332-1.021-9.34C315.761,67.648,315.053,67.529,314.35,67.529"/>
		<path fill="#4C5367" d="M302.424,61.793c-4.795,0-9.873,5.253-9.245,9.432c0.355,2.479,2.252,3.722,4.557,3.722
			c2.261,0,4.914-1.197,6.888-3.596c2.103-2.55,3.539-7.045,0.159-9.086C304.023,61.94,303.228,61.793,302.424,61.793"/>
		<path fill="#4C5367" d="M266.817,37.824c-4.238,0.002-11.132,4.179-11.864,7.991c-0.327,1.695,0.813,2.548,2.672,2.548
			c1.782,0,4.22-0.782,6.668-2.356c2.774-1.818,6.536-5.421,4.847-7.524C268.559,38.028,267.753,37.824,266.817,37.824"/>
		<path fill="#4C5367" d="M259.644,27.093c-3.573,0-11.919,4.418-13.171,7.564c-0.384,0.955,0.114,1.418,1.209,1.418
			c1.356,0,3.624-0.713,6.251-2.088c2.933-1.562,7.493-4.655,7.173-6.344C260.86,27.263,260.345,27.093,259.644,27.093"/>
		<path fill="#4C5367" d="M324.241,53.733c-4.224,0-9.114,4.819-8.332,8.979c0.382,2.053,2.065,3.184,4.101,3.184
			c2.043,0,4.44-1.14,6.228-3.63c1.721-2.423,2.805-6.568-0.256-8.225C325.428,53.83,324.842,53.733,324.241,53.733"/>
		<path fill="#4C5367" d="M314.294,48.957c-4.205,0-9.575,4.324-9.383,8.271c0.099,2.047,1.735,3.203,3.878,3.203
			c2,0,4.439-1.005,6.483-3.236c2.072-2.231,3.731-6.184,0.956-7.874C315.633,49.071,314.979,48.957,314.294,48.957"/>
		<path fill="#4C5367" d="M289.884,33.896c-4.141,0-10.769,3.362-11.786,6.595c-0.524,1.698,0.699,2.693,2.847,2.693
			c1.766,0,4.158-0.673,6.718-2.183c2.71-1.595,6.344-4.814,4.526-6.567C291.603,34.062,290.806,33.896,289.884,33.896"/>
		<path fill="#4C5367" d="M284.2,28.909c-4.175,0-11.366,3.297-12.477,6.322c-0.519,1.42,0.503,2.247,2.477,2.247
			c1.659,0,3.99-0.587,6.642-1.896c2.9-1.467,7.014-4.4,5.673-6.09C285.985,29.089,285.175,28.909,284.2,28.909"/>
		<path fill="#4C5367" d="M280.156,24.134c-4.075,0-11.886,3.206-13.152,5.997c-0.52,1.156,0.339,1.739,2.001,1.739
			c1.591,0,3.921-0.535,6.479-1.612c3.06-1.306,7.588-3.952,6.791-5.547C281.863,24.31,281.113,24.134,280.156,24.134"/>
		<path fill="#4C5367" d="M306.718,26.268c-4.146,0-11.14,2.795-12.073,5.36c-0.444,1.193,0.562,1.885,2.454,1.885
			c1.645,0,3.957-0.522,6.567-1.693c1.849-0.862,6.822-3.572,5.355-5.07C308.479,26.415,307.675,26.268,306.718,26.268"/>
		<path fill="#4C5367" d="M302.05,22.34c-4.324,0-11.817,2.555-12.729,4.888c-0.384,0.956,0.56,1.543,2.434,1.543
			c1.562,0,3.772-0.409,6.396-1.351c2.008-0.733,7.46-3.092,6.44-4.526C304.063,22.508,303.162,22.34,302.05,22.34"/>
		<path fill="#4C5367" d="M298.598,18.557c-4.419,0.001-12.312,2.287-13.23,4.4c-0.365,0.813,0.531,1.228,2.214,1.228
			c1.548,0,3.762-0.351,6.267-1.069c2.103-0.607,8.034-2.615,7.428-3.954C300.818,18.74,299.848,18.557,298.598,18.557"/>
		<path fill="#4C5367" d="M316.795,15.636c-4.506,0-11.134,1.066-12.204,2.38c-0.498,0.617,0.439,1.036,2.719,1.036
			c1.363,0,3.205-0.149,5.507-0.494c0.095-0.033,8.321-1.275,8.001-2.264C320.28,15.833,318.736,15.636,316.795,15.636"/>
		<path fill="#4C5367" d="M314.436,13.242c-4.616,0-10.797,0.757-11.661,1.807c-0.386,0.472,0.493,0.827,3.011,0.827
			c1.233,0,2.861-0.085,4.926-0.284c0.893-0.064,8.703-0.828,8.768-1.595C319.018,13.469,316.961,13.242,314.436,13.242"/>
		<path fill="#4C5367" d="M312.634,11.173c-4.526,0-9.875,0.481-10.464,1.294c-0.152,0.229,0.016,0.676,3.824,0.676
			c0.989,0,2.224-0.029,3.762-0.102c2.71-0.128,8.991-0.477,9.311-1.052C318.77,11.426,315.918,11.173,312.634,11.173"/>
		<path fill="#4C5367" d="M311.229,9.373c-4.184,0-8.371,0.353-8.454,1.022c0.228,0.228,1.093,0.457,5.448,0.457
			c0.514,0,1.078-0.004,1.693-0.011c9.053-0.062,9.499-0.382,9.627-0.51v-0.062C318.802,9.661,315.016,9.373,311.229,9.373"/>
		<path fill="#4C5367" d="M310.663,7.875c-2.715,0-5.135,0.18-6.04,0.607l-0.033,0.128c0.415,0.223,1.564,0.351,6.505,0.446
			c3.62,0.088,5.856,0.123,7.259,0.123c2.131,0,2.335-0.078,2.527-0.154V8.897C319.704,8.299,314.834,7.875,310.663,7.875"/>
		<path fill="#4C5367" d="M311.807,6.808c-2.06,0-3.748,0.11-4.347,0.368l0.033,0.095c0.542,0.159,1.785,0.254,5.801,0.446
			c5.964,0.29,8.04,0.392,8.923,0.392c0.47,0,0.602-0.029,0.801-0.074l0.064-0.095C322.069,7.294,316.121,6.808,311.807,6.808"/>
		<path fill="#4C5367" d="M313.959,6.168c-1.394,0-2.395,0.066-2.608,0.211c0.223,0.095,0.223,0.095,5.1,0.415
			c7.721,0.548,9.103,0.647,9.404,0.647c0.066,0,0.08-0.005,0.097-0.011h0.095V7.335C324.528,6.657,317.774,6.168,313.959,6.168"/>
		<path fill="#4C5367" d="M317.344,5.991c-0.503,0-0.899,0.012-1.147,0.036c1.434,0.159,2.836,0.192,4.272,0.318
			c3.029,0.256,6.057,0.797,9.117,0.861l0.192-0.031c-0.526-0.332-2.791-0.628-5.344-0.841c-0.825-0.054-1.624-0.102-2.339-0.149
			c0.066-0.004,0.145-0.005,0.228-0.005C320.414,6.06,318.563,5.991,317.344,5.991"/>
		<path fill="#4C5367" d="M325.919,6.436c2.671,0.268,5.293,0.725,7.97,0.963h0.32c-0.014-0.014-0.155-0.079-0.633-0.178
			c-0.991-0.133-1.955-0.258-2.811-0.365l0.256,0.033c0.427,0.035,0.735,0.061,1.095,0.102c-0.79-0.102-1.866-0.214-3.328-0.325
			C327.922,6.583,326.928,6.507,325.919,6.436 M322.356,6.182c-0.012,0-0.021,0-0.033,0c-0.083,0-0.162,0.002-0.228,0.005
			c0.714,0.046,1.513,0.095,2.339,0.149c0.491,0.033,0.989,0.065,1.486,0.1c-0.192-0.019-0.382-0.04-0.572-0.057
			C324.127,6.268,323.006,6.182,322.356,6.182"/>
		<path fill="#4C5367" d="M335.614,7.5c0.84,0.131,1.889,0.296,3.217,0.505c0.206,0.038,0.29,0.052,0.353,0.052
			c0.041,0,0.073-0.007,0.127-0.021c-0.128-0.031-0.319-0.062-0.862-0.126C337.58,7.778,336.61,7.638,335.614,7.5 M330.765,6.856
			c0.856,0.107,1.82,0.232,2.811,0.365c0.674,0.09,1.361,0.183,2.038,0.279c-2.02-0.315-2.844-0.436-3.497-0.509
			c-0.36-0.042-0.668-0.067-1.095-0.102L330.765,6.856"/>
		<path fill="#4C5367" d="M449.211,123.346c-0.088,0-0.176,0.052-0.263,0.163c-0.884,1.975-0.242,9.52,0.626,13.676h1.832
			c0.095-1.748,0.019-4.141-0.26-6.662l-0.095-0.829C450.709,127.042,449.96,123.346,449.211,123.346"/>
		<path fill="#4C5367" d="M451.406,137.185"/>
		<line fill="#4C5367" x1="451.406" y1="137.185" x2="449.575" y2="137.185"/>
		<path fill="#4C5367" d="M445.626,127.198c-0.104,0-0.208,0.024-0.313,0.073c-1.349,1.24-1.562,5.855-1.095,9.914h4.296
			c-0.007-0.744-0.042-1.524-0.109-2.326C448.051,130.987,446.93,127.198,445.626,127.198"/>
		<path fill="#4C5367" d="M448.515,137.185"/>
		<line fill="#4C5367" x1="448.515" y1="137.185" x2="444.218" y2="137.185"/>
		<path fill="#4C5367" d="M439.678,130.051c-0.086,0-0.173,0.009-0.263,0.024c-1.624,0.761-2.335,3.814-2.35,7.109h6.088
			C442.782,133.947,441.584,130.051,439.678,130.051"/>
		<path fill="#4C5367" d="M443.241,138.174c-0.021-0.32-0.05-0.65-0.088-0.989"/>
		<line fill="#4C5367" x1="443.153" y1="137.185" x2="437.064" y2="137.185"/>
		<path fill="#FFFFFF" d="M427.996,111.999c-0.008,0-0.017,0-0.026,0c-4.145,1.084-2.263,13.391,1.403,16.004
			c0.467,0.334,0.913,0.488,1.328,0.488c1.963,0,3.214-3.483,2.53-8.012C432.723,117.048,430.692,111.999,427.996,111.999"/>
		<path fill="#4C5367" d="M418.82,112.605c-4.878,0.543-4.208,11.86-0.159,15.527c0.77,0.692,1.536,1.01,2.247,1.01
			c2.235,0,3.928-3.136,3.492-7.61C424.081,117.993,422.104,112.892,418.82,112.605"/>
		<path fill="#4C5367" d="M407.918,112.191h-0.51c-4.847,0.446-5.485,11.125-0.926,15.271c0.946,0.851,1.92,1.24,2.835,1.24
			c2.474,0,4.509-2.856,4.371-7.138C413.591,118.057,411.711,112.797,407.918,112.191"/>
		<path fill="#4C5367" d="M346.673,21.695c-2.804,0-9.837,1.88-10.425,3.589c-0.163,0.477,0.279,0.785,1.264,0.785
			c1.128,0,2.966-0.403,5.431-1.424c0.064-0.031,5.293-2.263,4.623-2.837C347.369,21.731,347.062,21.695,346.673,21.695"/>
		<path fill="#4C5367" d="M343.608,20.206c-3.39,0-10.181,1.18-11.217,2.655c-0.316,0.451,0.133,0.787,1.434,0.787
			c1.187,0,3.079-0.28,5.739-1.01c0.064,0,5.739-1.562,5.803-2.167l-0.064-0.064C344.997,20.268,344.395,20.206,343.608,20.206"/>
		<path fill="#4C5367" d="M340.111,18.649c-4.085,0-10.412,0.775-11.13,1.886c-0.244,0.356,0.253,0.69,1.984,0.69
			c1.211,0,3.022-0.163,5.604-0.595c0.287-0.031,6.599-1.052,6.822-1.562l-0.031-0.064C342.878,18.76,341.654,18.649,340.111,18.649
			"/>
		<path fill="#4C5367" d="M335.382,16.992c-3.908,0-8.275,0.359-9.143,1.119c-0.024,0.048-0.766,0.777,3.041,0.777
			c1.143,0,2.696-0.066,4.802-0.235c0.669-0.064,6.759-0.541,7.652-0.924l0.031-0.128C341.074,17.201,338.362,16.992,335.382,16.992
			"/>
		<path fill="#4C5367" d="M330.181,15.15c-3.091,0-5.751,0.246-6.111,0.856c0.143,0.46,2.271,0.711,6.545,0.711
			c0.479,0,0.988-0.002,1.522-0.009c8.129-0.095,8.319-0.319,8.447-0.446C339.675,15.629,334.505,15.15,330.181,15.15"/>
		<path fill="#4C5367" d="M325.933,13.406c-1.785,0-3.022,0.158-3.074,0.561c0.382,0.413,2.614,0.669,7.97,0.923
			c4.907,0.216,7.088,0.291,8.097,0.291c0.775,0,0.861-0.043,0.958-0.099C339.191,14.505,330.646,13.406,325.933,13.406"/>
		<path fill="#4C5367" d="M324.65,11.737c-1.164,0-1.965,0.111-2.141,0.38c0.223,0.413,2.902,0.733,7.747,1.18
			c6.552,0.626,8.346,0.78,8.985,0.78c0.237,0,0.317-0.021,0.421-0.047C339.103,13.398,329.148,11.737,324.65,11.737"/>
		<path fill="#4C5367" d="M324.582,10.262c-0.868,0-1.46,0.114-1.627,0.389c0.479,0.351,2.71,0.701,7.365,1.308
			c7.97,1.07,9.07,1.219,9.446,1.219c0.061,0,0.102-0.005,0.151-0.009C339.836,13.036,328.854,10.262,324.582,10.262"/>
		<path fill="#4C5367" d="M325.253,9.241c-0.548,0-0.941,0.052-1.119,0.166c0.32,0.319,2.518,0.701,6.919,1.467
			c9.342,1.593,9.342,1.593,9.565,1.593v-0.031C339.07,11.414,328.827,9.241,325.253,9.241"/>
		<path fill="#4C5367" d="M326.862,8.432c-0.284,0-0.526,0.015-0.719,0.05l-0.031,0.064c0.446,0.287,1.562,0.51,6.313,1.499
			c9.276,1.913,9.276,1.913,9.309,1.913v-0.033C340.699,11.07,330.459,8.432,326.862,8.432"/>
		<path fill="#4C5367" d="M329.287,7.889c-0.268,0-0.462,0.026-0.562,0.085c0.256,0.19,0.448,0.254,5.611,1.498
			c2.71,0.67,4.783,1.18,5.675,1.434c2.328,0.605,2.902,0.733,3.221,0.733v-0.064C341.24,10.305,331.838,7.889,329.287,7.889"/>
		<path fill="#4C5367" d="M332.452,7.723c-0.199,0-0.349,0.019-0.443,0.059c0.287,0.159,0.287,0.159,4.814,1.403
			c2.454,0.7,4.144,1.18,5.77,1.657c1.913,0.574,2.233,0.67,2.551,0.703l0.031-0.064C343.795,10.305,334.782,7.723,332.452,7.723"/>
		<path fill="#4C5367" d="M336.356,7.856c-0.208,0-0.353,0.028-0.425,0.085c0.192,0.095,0.192,0.095,3.921,1.275
			c2.169,0.669,3.795,1.212,5.133,1.659c1.754,0.605,2.072,0.701,2.39,0.764l0.095-0.031
			C346.746,10.563,338.449,7.856,336.356,7.856"/>
		<path fill-rule="evenodd" clip-rule="evenodd" fill="#4C5367" d="M392.073,125.134c3.762,4.177,8.894,1.562,9.15-4.655
			c0.159-3.475-1.562-8.799-5.834-9.755l-0.574-0.033C389.49,110.66,387.673,120.257,392.073,125.134 M435.303,110.437
			c-3.156,1.531-0.734,13.804,2.326,16.036c2.264,1.626,3.539-2.614,2.454-8.066c-0.637-3.316-2.518-8.001-4.557-8.001
			C435.463,110.406,435.366,110.437,435.303,110.437 M376.037,121.5c3.729,5.165,10.266,3.252,11.061-3.221
			c0.415-3.411-1.083-8.799-5.801-10.106c-0.318-0.031-0.605-0.064-0.893-0.064C374.666,108.109,372.465,116.623,376.037,121.5
			 M440.658,107.919c-2.262,2.167,1.116,15.048,3.411,16.131c1.564,0.733,1.946-3.665,0.766-8.703
			c-0.893-3.76-2.582-7.491-3.89-7.491C440.85,107.855,440.755,107.886,440.658,107.919 M359.649,117.42
			c3.443,5.227,10.521,3.729,11.893-2.487c0.7-3.347-0.479-8.736-5.326-10.329c-0.446-0.095-0.86-0.128-1.306-0.128
			C359.203,104.475,356.397,112.446,359.649,117.42 M443.943,104.475c-1.053,2.551,2.55,15.335,3.985,15.973
			c1.02,0.446,0.734-4.113-0.574-9.088c-0.956-3.634-2.359-7.014-3.157-7.014C444.102,104.347,444.007,104.38,443.943,104.475
			 M447.864,107.409c-0.543-2.072-1.148-4.018-1.659-5.706L447.864,107.409 M343.231,112.479c3.06,5.291,10.457,4.208,12.306-1.818
			c1.021-3.251,0.287-8.639-4.559-10.457c-0.574-0.127-1.116-0.19-1.626-0.19C343.677,100.013,340.33,107.504,343.231,112.479
			 M445.059,100.203c0.095,2.2,3.634,15.24,4.431,15.653c0.223-0.636-0.828-5.483-1.944-9.373c-0.161-0.637-1.787-6.247-2.456-6.535
			L445.059,100.203 M446.205,101.703l-0.254-0.83l-0.318-0.923C445.792,100.49,445.982,101.064,446.205,101.703 M445.633,99.949
			c-0.638-1.977-1.148-3.316-1.244-3.572L445.633,99.949 M413.878,93.509c-3.603,0.829-1.657,12.241,2.582,15.238
			c3.062,2.136,5.101-1.372,3.89-6.695c-0.733-3.316-3.188-8.32-6.121-8.576L413.878,93.509 M404.282,93.094
			c-4.304,0.478-3.347,11.732,1.276,15.079c3.283,2.392,6.057-0.797,5.26-6.121c-0.479-3.283-2.774-8.384-6.121-8.958H404.282
			 M421.945,93.03c-3.093,1.308,0.159,13.486,4.144,15.494c2.486,1.275,3.57-2.454,2.136-7.429c-0.956-3.283-3.539-8.16-5.995-8.16
			L421.945,93.03 M392.55,106.165c3.667,3.316,7.557,0.574,7.206-5.07c-0.223-3.347-2.2-8.416-5.993-9.276l-0.51-0.033
			C388.406,91.82,387.896,101.893,392.55,106.165 M428.639,91.564c-2.773,1.436,1.946,14.155,4.815,15.558
			c2.103,1.021,2.549-2.964,0.829-7.875c-1.116-3.316-3.634-7.683-5.483-7.683C428.767,91.564,428.703,91.564,428.639,91.564
			 M380.595,89.524c-4.845,0-6.598,8.766-2.518,13.42c3.698,4.208,8.895,2.041,9.119-3.824c0.095-3.253-1.595-8.385-5.739-9.534
			l-0.541-0.062C380.818,89.524,380.692,89.524,380.595,89.524 M433.294,89.363c-1.816,1.849,3.349,14.347,5.644,15.399
			c1.69,0.764,1.466-3.38-0.415-8.225c-1.244-3.189-3.57-7.237-4.973-7.237C433.454,89.301,433.39,89.332,433.294,89.363
			 M363.38,99.28c3.444,4.367,9.119,2.613,9.978-3.125c0.446-3.155-0.797-8.288-5.101-9.691l-0.574-0.128
			c-0.19-0.031-0.382-0.031-0.572-0.031C362.231,86.304,359.618,94.561,363.38,99.28 M436.196,86.368
			c-0.83,2.231,4.719,14.505,6.216,15.143c1.18,0.511,0.351-3.857-1.657-8.511c-1.435-3.38-3.443-6.728-4.336-6.728
			C436.322,86.271,436.26,86.304,436.196,86.368 M348.204,94.274c2.87,5.069,9.406,3.921,10.937-1.913
			c0.828-3.06,0.062-8.129-4.177-9.724c-0.479-0.126-0.956-0.159-1.403-0.159C348.524,82.478,345.621,89.651,348.204,94.274
			 M437.153,82.606c0.159,1.913,5.706,14.761,6.694,14.825c0.384-0.543-1.242-5.07-2.9-8.768c-1.37-2.997-3.124-6.216-3.729-6.281
			L437.153,82.606 M436.163,78.111c0.287,0.669,6.6,14.091,6.759,14.346l-0.033-0.064c-1.562-3.762-3.888-8.64-5.611-12.305
			l-0.637-1.277c-0.446-0.796-0.479-0.829-0.605-0.956L436.163,78.111 M406.993,75.495c-2.454,1.467,1.084,13.073,5.483,14.73
			c2.423,0.892,3.19-2.39,1.595-6.791c-1.18-3.252-4.08-7.842-6.536-8.098L406.993,75.495 M398.927,75.146
			c-3.061,1.147-1.02,11.668,3.729,14.41c2.933,1.69,4.59-1.403,3.284-6.121c-0.861-3.093-3.444-7.875-6.344-8.385L398.927,75.146
			 M413.975,74.987c-2.582,1.275,2.741,13.581,6.44,14.792c2.136,0.702,2.295-2.774,0.382-7.173
			c-1.434-3.221-4.496-7.683-6.568-7.716L413.975,74.987 M389.681,73.997c-3.506,0.766-3.029,10.299,1.69,13.9
			c3.316,2.487,5.995-0.254,5.101-5.291c-0.509-3.029-2.805-7.875-6.024-8.64L389.681,73.997 M419.553,73.743l-0.19,0.095
			c-1.754,1.531,4.462,13.868,7.396,14.666c1.785,0.478,1.434-3.125-0.766-7.46c-1.593-3.125-4.655-7.301-6.343-7.301
			C419.617,73.743,419.586,73.743,419.553,73.743 M379.574,72.053c-3.921,0-5.26,8.768-0.765,13.102
			c3.157,3.029,7.27,1.372,6.95-4.208c-0.191-2.965-2.072-7.842-5.547-8.83l-0.477-0.064
			C379.671,72.053,379.638,72.053,379.574,72.053 M423.443,71.925c-0.925,1.051,2.2,6.886,2.837,8.034
			c1.69,3.029,3.985,6.249,5.165,6.473c1.403,0.254,0.479-3.539-1.88-7.716c-1.913-3.347-4.688-6.822-5.929-6.822
			C423.571,71.894,423.507,71.894,423.443,71.925 M366.026,82c2.933,3.155,7.524,1.816,7.906-3.603
			c0.223-2.869-1.148-7.683-4.749-8.895l-0.926-0.095C364.208,69.535,362.008,77.664,366.026,82 M425.866,69.407
			c-0.543,1.785,6.886,14.059,8.511,14.155c1.021,0.064-0.446-3.921-2.869-7.875c-1.977-3.188-4.559-6.344-5.452-6.344
			C425.993,69.343,425.931,69.376,425.866,69.407 M352.827,77.664c2.677,4.08,7.906,2.614,8.991-2.519
			c0.574-2.741-0.192-7.493-3.731-8.831l-0.477-0.128c-0.192-0.031-0.382-0.031-0.574-0.031
			C353.114,66.155,349.734,73.01,352.827,77.664 M426.664,66.283c0.254,1.88,7.778,13.548,8.83,13.707
			c0.479-0.413-1.657-4.654-3.857-8.001c-2.105-3.251-4.272-5.834-4.846-5.834C426.726,66.155,426.695,66.219,426.664,66.283
			 M425.833,62.552c0.574,1.213,8.353,12.976,8.863,13.135c-0.126-0.605-2.39-4.527-4.749-8.034
			c-1.372-2.072-3.634-5.165-4.177-5.324L425.833,62.552 M398.448,58.759c-1.626,1.339,3.731,12.879,7.46,13.645
			c1.882,0.413,1.754-2.582-0.254-6.377c-1.754-3.347-4.974-7.204-6.824-7.427L398.448,58.759 M392.168,58.472
			c-2.231,1.116,1.498,11.668,5.644,13.484c2.167,0.958,3.188-1.434,1.275-5.929c-1.244-2.933-4.177-7.237-6.44-7.652
			L392.168,58.472 M403.869,58.313c-1.882,1.18,5.706,13.325,8.543,13.707c1.626,0.223,0.989-2.9-1.339-6.662
			c-2.039-3.316-5.452-7.045-7.013-7.078L403.869,58.313 M431.254,69.535c-2.646-4.208-6.695-9.534-8.003-11.286l-0.254-0.32
			C425.547,61.373,428.895,65.963,431.254,69.535 M384.931,57.58c-2.742,0.828-0.446,11.189,3.985,13.294
			c2.295,1.083,3.921-1.085,2.551-5.516c-0.893-2.87-3.444-7.206-5.931-7.811L384.931,57.58 M408.203,57.357l-0.126,0.095
			c-1.308,1.434,7.173,13.389,9.532,13.486c1.179,0.031,0.446-2.87-2.328-6.855c-2.295-3.221-5.737-6.726-7.013-6.726
			C408.236,57.357,408.236,57.357,408.203,57.357 M376.866,56.08c-3.316,0.51-2.806,9.693,1.657,12.658
			c2.582,1.754,5.069-0.095,4.272-4.719c-0.446-2.71-2.454-7.109-5.26-7.939H376.866 M411.232,55.921
			c-0.828,1.148,7.939,12.784,9.98,13.263c1.275,0.287,0.126-2.869-3.029-6.95c-2.392-3.092-5.708-6.344-6.824-6.344
			C411.329,55.89,411.265,55.921,411.232,55.921 M367.524,65.837c2.518,2.326,5.834,0.828,5.739-3.859
			c-0.031-2.613-1.434-6.95-4.272-7.906l-0.734-0.095C364.846,54.264,363.667,62.298,367.524,65.837 M413.114,53.977
			c-0.287,1.403,8.991,12.656,10.553,12.848c0.956,0.128-0.702-3.188-3.954-7.045c-2.645-3.157-5.642-5.836-6.47-5.836
			C413.209,53.944,413.145,53.944,413.114,53.977 M356.558,62.298c2.198,2.837,6.216,1.785,6.95-2.933
			c0.351-2.487-0.382-6.696-3.188-7.811l-0.351-0.064c-0.128-0.031-0.256-0.031-0.382-0.031
			C356.271,51.458,353.56,58.408,356.558,62.298 M413.783,51.458l-0.031,0.095c0.19,1.052,9.883,12.753,10.902,12.273
			c0.192-0.733-2.39-4.303-4.814-7.045c-2.549-2.838-5.355-5.324-5.993-5.324C413.814,51.458,413.814,51.458,413.783,51.458
			 M345.845,58.249c1.659,3.283,6.313,2.711,7.875-1.977c0.765-2.359,0.702-6.408-1.944-7.588c-0.287-0.064-0.543-0.128-0.828-0.128
			C347.408,48.589,343.996,54.551,345.845,58.249 M417.068,50.884c-0.733-0.797-1.084-1.18-2.233-2.328
			C415.632,49.354,416.366,50.151,417.068,50.884 M413.05,48.525l0.032,0.128c0.67,1.244,9.819,11.158,10.743,11.668l0.095-0.064
			c-0.285-0.892-2.868-4.208-5.45-6.983c-2.264-2.421-4.495-4.431-5.293-4.781L413.05,48.525 M411.073,45.273
			c0.064,0.095,10.075,10.712,10.489,10.935c-0.19-0.287-0.988-1.339-2.996-3.634c-2.072-2.328-4.241-4.559-6.536-6.727
			c-0.893-0.766-0.988-0.766-1.083-0.766L411.073,45.273 M388.055,43.583c-1.498,0.797,6.377,11.763,8.895,12.337
			c1.403,0.32,0.988-2.072-1.721-5.77c-2.105-2.87-5.644-6.408-7.014-6.599L388.055,43.583 M383.623,43.456
			c-1.211,1.084,4.272,11.319,7.398,12.211c1.562,0.446,1.688-1.69-0.638-5.485c-1.785-2.965-4.91-6.471-6.439-6.791L383.623,43.456
			 M391.691,43.36c-0.638,0.605,7.555,11.827,10.232,12.273c1.244,0.192,0.32-2.359-2.708-5.96
			c-2.423-2.869-6.185-6.282-7.398-6.377L391.691,43.36 M378.651,42.85c-1.754,0.892,1.977,10.808,5.58,12.019
			c1.657,0.542,2.295-1.434,0.541-5.196c-1.372-2.869-4.049-6.408-5.739-6.854L378.651,42.85 M394.591,42.755
			c-0.382,0.701,9.022,11.86,11.317,12.051c1.053,0.064-0.287-2.55-3.603-6.057c-2.932-3.06-6.663-6.057-7.619-6.057L394.591,42.755
			 M373.04,41.798c-2.2,0.669-0.351,9.563,3.221,11.509c1.975,1.052,3.347-0.702,2.135-4.623c-0.765-2.423-2.932-6.28-4.909-6.886
			H373.04 M408.108,41.957c3.698,3.634,5.58,5.483,6.727,6.599c-2.136-2.167-4.463-4.495-6.375-6.375
			c-0.383-0.318-0.383-0.318-0.575-0.446L408.108,41.957 M396.791,41.703c-0.51,0.957,10.648,11.828,12.051,11.763
			c0.828-0.064-0.957-2.774-4.4-6.09c-2.964-2.901-6.758-5.673-7.586-5.673C396.822,41.703,396.822,41.703,396.791,41.703
			 M367.811,51.107c2.008,1.562,4.08,0.031,3.539-3.921c-0.287-2.328-1.818-6.09-3.762-6.791l-0.478-0.033
			C364.718,40.778,364.654,48.62,367.811,51.107 M398.066,40.363c-0.031,0.797,7.811,7.78,7.875,7.844
			c4.239,3.729,4.655,3.475,4.814,3.378c0.095-0.701-2.167-3.347-5.165-6.024c-2.998-2.678-6.632-5.229-7.429-5.229
			C398.13,40.332,398.097,40.363,398.066,40.363 M398.512,38.674c0.223,0.732,11.732,10.871,12.817,10.648
			c0.19-0.51-2.487-3.349-5.644-5.962c-2.742-2.264-6.28-4.718-7.078-4.718C398.576,38.642,398.545,38.674,398.512,38.674
			 M361.244,38.611c-2.519,0-4.496,6.886-1.88,9.819c1.785,2.008,4.526,0.764,4.781-3.189c0.161-2.231-0.637-5.77-2.518-6.566
			l-0.254-0.064C361.339,38.611,361.276,38.611,361.244,38.611 M351.106,45.337c1.37,2.423,4.686,1.593,5.834-2.359
			c0.605-2.105,0.541-5.452-1.244-6.281c-0.192-0.033-0.351-0.064-0.541-0.064C352.317,36.634,349.447,42.404,351.106,45.337
			 M398.066,36.665c0.064,0.097,11.701,10.106,12.689,9.916c-0.128-0.574-2.837-3.252-6.09-5.803
			c-3.029-2.359-5.834-4.08-6.567-4.208L398.066,36.665 M343.2,41.926c0.701,2.741,4.526,2.327,6.663-1.531
			c1.02-1.849,1.754-5.037,0.031-5.931c-0.191-0.062-0.413-0.095-0.637-0.095C346.483,34.369,342.498,39.088,343.2,41.926
			 M396.599,34.242l0.064,0.097c0.574,0.637,11.637,8.958,12.211,9.15l0.031-0.064c-0.223-0.318-0.925-1.085-2.965-2.87
			c-2.487-1.977-5.037-3.857-7.716-5.611c-1.083-0.605-1.403-0.733-1.531-0.733C396.663,34.21,396.632,34.242,396.599,34.242
			 M394.527,31.946l0.095,0.097c0.064,0.062,11.096,8.16,11.573,8.288c-0.382-0.477-3.347-3.061-6.534-5.357
			c-2.519-1.785-4.559-2.996-5.101-3.091L394.527,31.946 M395.292,31.469c-0.35-0.256-0.732-0.511-1.116-0.765
			C394.56,30.959,394.909,31.213,395.292,31.469 M394.176,30.704L394.176,30.704 M375.686,30.513
			c-0.033,0.828,8.958,10.775,10.584,10.712c0.766-0.031-0.446-2.103-3.411-5.037c-2.678-2.71-6.344-5.547-7.109-5.708
			L375.686,30.513 M373.422,30.417c-0.318,0.7,6.919,10.553,8.896,10.648c0.859,0.064,0.095-1.944-2.423-4.878
			c-2.169-2.518-5.485-5.547-6.377-5.77H373.422 M377.566,30.417c0.287,0.957,11.031,11.063,12.114,10.553
			c0.192-0.574-1.657-2.71-4.367-5.101c-3.029-2.646-6.981-5.39-7.683-5.485L377.566,30.417 M370.839,30.097
			c-0.446,0.223,1.562,4.144,3.316,6.823c1.372,2.039,2.838,3.506,3.634,3.634c0.989,0.128,0.669-1.721-1.37-4.685
			c-1.723-2.52-4.559-5.485-5.485-5.772H370.839 M379.097,30.097c0.095,0.128,12.337,11.063,13.199,10.265
			c-0.033-0.637-2.136-2.773-5.07-5.068c-3.506-2.741-7.524-5.197-8.098-5.261L379.097,30.097 M367.939,29.587
			c-0.989,0.192,1.754,8.801,4.526,9.947c1.308,0.542,1.595-1.18,0.033-4.272c-1.148-2.263-3.413-5.324-4.431-5.675H367.939
			 M394.05,39.534l0.126-0.095c-0.19-0.734-2.582-2.806-5.642-4.974c-3.124-2.231-7.396-4.781-8.322-4.94
			C380.212,29.587,392.168,39.088,394.05,39.534 M391.594,29.364c3.444,2.615,7.206,4.751,10.617,7.398
			c-1.498-1.213-3.506-2.743-5.006-3.89c-0.382-0.287-1.083-0.797-1.562-1.116c-1.754-1.243-3.826-2.551-4.208-2.551L391.594,29.364
			 M364.751,28.854c-1.148,0.574-0.287,8.195,2.231,9.373c1.275,0.607,2.041-0.956,1.18-3.888c-0.605-2.136-2.2-5.1-3.188-5.484
			H364.751 M395.355,38.291c-0.031-0.542-2.805-2.806-6.121-4.942c-3.539-2.295-7.619-4.462-8.352-4.526
			C380.915,28.918,394.017,38.355,395.355,38.291 M395.771,36.729c-0.223-0.574-2.869-2.582-6.472-4.75
			c-3.475-2.041-7.524-4.018-8.193-4.018C381.202,28.058,394.973,36.985,395.771,36.729 M361.053,36.315
			c1.147,1.147,2.837,0.19,2.678-3.157c-0.097-1.785-0.862-4.751-1.882-5.198l-0.126-0.031
			C360.446,27.93,358.917,34.115,361.053,36.315 M380.882,26.91c0.064,0.064,13.168,7.78,14.379,8.034l0.064-0.064
			c-0.415-0.638-3.188-2.582-6.662-4.496c-3.316-1.816-7.111-3.475-7.747-3.475H380.882 M355.504,34.242
			c0.862,1.466,3.029,0.797,3.795-2.486c0.382-1.659,0.382-4.367-0.51-4.846c-0.064,0-0.095-0.031-0.159-0.031
			C356.971,26.91,354.261,32.106,355.504,34.242 M387.896,26.687c2.072,1.372,4.208,2.646,6.28,4.018
			c-1.657-1.149-3.601-2.423-5.132-3.444c-1.18-0.733-1.372-0.766-1.467-0.797L387.896,26.687 M350.214,31.979
			c0.349,1.657,2.869,1.37,4.718-1.818c0.732-1.307,1.657-3.89,0.828-4.399c-0.064-0.033-0.128-0.033-0.192-0.033
			C353.943,25.73,349.734,29.62,350.214,31.979 M380.149,25.699c0.097,0.064,13.263,7.237,13.932,7.109
			c-0.064-0.159-0.574-0.67-2.934-2.136c-2.836-1.562-5.77-3.029-8.829-4.336c-1.116-0.446-1.723-0.637-2.105-0.701L380.149,25.699
			 M345.272,29.779c-0.033,1.531,2.646,1.434,5.419-1.372c0.829-0.796,2.965-3.347,2.168-3.888c-0.095-0.033-0.223-0.033-0.35-0.033
			C350.563,24.486,345.303,27.612,345.272,29.779 M379.097,24.486c0.064,0.033,12.242,6.057,13.104,6.249l0.031-0.031
			c-0.415-0.51-3.221-2.297-6.632-3.89c-2.423-1.116-5.642-2.359-6.375-2.359C379.161,24.455,379.128,24.486,379.097,24.486
			 M383.146,23.753c1.211,0.702,2.805,1.626,4.016,2.36c-0.636-0.413-0.636-0.413-3.57-2.103l-0.479-0.287L383.146,23.753
			 M340.618,27.484c-0.415,1.37,2.263,1.498,6.057-0.926c0.064,0,4.239-2.741,3.442-3.378c-0.126-0.033-0.318-0.064-0.541-0.064
			C347.311,23.117,341.159,25.54,340.618,27.484 M377.502,23.02v0.064c0.097,0.064,11.573,5.292,12.019,5.229
			c-0.254-0.383-3.219-2.136-6.408-3.475c-2.645-1.148-5.037-1.818-5.578-1.818H377.502 M375.558,21.586l-0.031,0.064l0.062,0.031
			l10.585,4.144c-0.479-0.382-3.22-1.944-6.026-2.996c-2.039-0.766-3.888-1.244-4.527-1.244
			C375.589,21.586,375.589,21.586,375.558,21.586 M373.232,20.183l0.095,0.095l8.991,3.125c-0.351-0.256-3.029-1.723-5.516-2.582
			c-1.307-0.415-2.615-0.702-3.251-0.702C373.391,20.119,373.294,20.15,373.232,20.183 M368.034,27.069
			c0.51,0.543,1.213,1.18,1.498,1.148c0.223-0.351-1.116-2.041-3.06-3.954c-2.105-2.072-4.91-4.304-5.1-4.496
			C363.603,22.16,365.739,24.71,368.034,27.069 M366.216,23.85c4.113,3.793,5.102,4.718,5.452,4.59
			c0.064-0.351-1.339-1.882-4.016-4.08c-2.741-2.233-6.057-4.495-6.185-4.592C365.134,22.861,365.134,22.861,366.216,23.85
			 M367.27,23.914c5.898,4.59,5.898,4.59,6.281,4.59c-0.095-0.384-1.946-2.041-4.878-4.144c-3.157-2.2-6.727-4.336-7.142-4.592
			C365.644,22.67,365.644,22.67,367.27,23.914 M368.162,23.914c6.662,4.526,6.662,4.526,6.95,4.493
			c-0.223-0.446-2.39-2.136-5.611-4.144c-3.508-2.167-7.46-4.272-7.906-4.496C366.057,22.51,366.057,22.51,368.162,23.914
			 M368.895,23.817c7.301,4.367,7.301,4.367,7.46,4.304c-0.351-0.478-2.774-2.135-6.216-4.047c-3.731-2.072-7.716-3.954-8.481-4.305
			C366.344,22.286,366.344,22.286,368.895,23.817 M361.626,20.884c0.382,1.084,0.669,2.169,1.053,3.252l0.126,0.351
			c0,0.064,0.159,0.479,0.382,0.989c0.415,0.924,0.925,1.593,1.244,1.69c0.51,0.126,0.51-1.021-0.765-3.413
			c-0.892-1.69-2.518-4.016-2.518-4.016C361.244,20.119,361.467,20.501,361.626,20.884 M362.392,21.299
			c0.859,1.339,1.626,2.71,2.518,4.049l0.446,0.669c0.797,1.116,1.37,1.69,1.657,1.754c0.51,0.095,0.033-1.308-1.88-3.698
			c-1.531-1.946-3.857-4.305-3.89-4.336C361.595,20.278,362.008,20.788,362.392,21.299 M368.672,23.212
			c8.448,4.463,8.448,4.463,8.576,4.463c-0.479-0.509-3.092-2.104-6.662-3.888c-3.921-1.977-8.099-3.698-8.896-4.049
			C366.44,22.001,366.44,22.001,368.672,23.212 M369.023,22.957c8.702,4.145,8.702,4.145,8.799,4.112
			c-0.605-0.51-3.38-2.039-6.983-3.665c-4.016-1.787-8.288-3.38-9.117-3.667C366.472,21.745,366.472,21.745,369.023,22.957
			 M360.925,23.276c0,0.605,0.031,0.956,0.064,1.244c0.064,0.7,0.318,1.562,0.7,1.816c0.542,0.351,1.021-0.637,0.479-2.996
			c-0.32-1.339-1.148-3.635-1.148-3.667L360.925,23.276 M369.183,22.606c8.766,3.762,8.766,3.762,8.799,3.729
			c-0.702-0.542-3.444-1.88-7.142-3.378c-4.016-1.627-8.288-2.997-9.117-3.284C366.6,21.522,366.6,21.522,369.183,22.606
			 M359.012,25.379c0.382,0.51,1.339-0.064,1.657-2.518c0.128-0.893,0.223-3.188,0.256-3.219
			C360.861,19.704,358.056,24.199,359.012,25.379 M360.925,19.642L360.925,19.642 M369.183,22.224
			c1.816,0.701,3.665,1.434,4.654,1.816c2.55,1.021,3.57,1.436,3.952,1.5c-0.126-0.32-3.347-1.787-7.14-3.125
			c-3.954-1.403-8.131-2.549-8.927-2.773C366.695,21.299,366.695,21.299,369.183,22.224 M356.43,24.296
			c0.128,0.541,1.243,0.51,2.773-1.977c0.543-0.893,1.053-1.818,1.595-2.711C360.733,19.642,356.112,22.861,356.43,24.296
			 M360.797,19.609L360.797,19.609 M368.96,21.778c2.39,0.765,4.75,1.657,7.14,2.454c0.956,0.318,1.021,0.287,1.117,0.254
			c-0.192-0.159-0.861-0.51-2.902-1.306c-3.188-1.084-6.471-2.072-9.85-2.933c-1.754-0.415-2.774-0.638-2.774-0.638
			C366.664,21.011,366.664,21.011,368.96,21.778 M354.071,23.243c-0.033,0.384,0.797,0.733,3.698-1.498
			c2.072-1.626,2.072-1.626,2.933-2.2C359.969,19.737,354.199,21.937,354.071,23.243 M360.702,19.545L360.702,19.545
			 M368.609,21.299c7.652,2.2,7.652,2.2,7.714,2.167c-0.509-0.349-3.188-1.37-6.727-2.263c-3.603-0.925-7.491-1.562-7.938-1.658
			C366.408,20.693,366.408,20.693,368.609,21.299 M351.84,22.16c-0.033,0-0.479,1.083,4.557-1.051
			c2.551-1.085,2.551-1.085,4.177-1.595C358.948,19.673,352.381,20.98,351.84,22.16 M360.574,19.514L360.574,19.514 M368.034,20.757
			c6.919,1.562,6.919,1.562,6.95,1.562c-0.478-0.287-2.773-1.116-6.248-1.785c-3.189-0.638-6.728-0.989-7.142-1.021
			C366.216,20.342,366.216,20.342,368.034,20.757 M360.32,19.45c-3.029,0-10.585,0.797-10.617,1.721
			c0.446,0.415,3.316-0.223,5.419-0.7c3.093-0.702,3.667-0.797,5.388-1.021C360.446,19.45,360.382,19.45,360.32,19.45 M360.51,19.45
			L360.51,19.45 M367.301,20.183c6.057,1.021,6.057,1.021,6.09,0.988c-0.256-0.254-2.487-0.924-5.644-1.339
			c-2.806-0.318-6.089-0.382-6.216-0.382C365.77,19.929,365.77,19.929,367.301,20.183 M347.822,19.991
			c0.287,0.351,2.741,0.128,6.154-0.19c3.57-0.351,4.59-0.382,6.439-0.382c-1.403-0.128-3.444-0.223-5.483-0.223
			C351.488,19.195,348.045,19.419,347.822,19.991 M365.962,19.162c-2.136,0-4.496,0.256-4.526,0.256
			c3.857,0.126,3.857,0.126,4.495,0.159c1.147,0.095,2.295,0.223,3.124,0.318c1.69,0.159,2.136,0.192,2.423,0.159l0.031-0.064
			c-0.318-0.254-2.262-0.764-4.909-0.829C366.377,19.162,366.185,19.162,365.962,19.162 M370.776,18.652l0.033,0.256l7.237,2.136
			c-0.159-0.097-2.869-1.564-4.974-2.136c-0.86-0.223-1.466-0.287-1.88-0.287C370.999,18.621,370.839,18.621,370.776,18.652
			 M346.229,18.749l-0.033,0.095c0.543,0.254,1.977,0.254,6.759,0.254c4.049,0,5.514,0.128,7.396,0.256
			c-2.39-0.382-7.652-0.892-11.094-0.892C347.855,18.462,346.739,18.524,346.229,18.749 M365.357,18.524
			c-1.69,0.192-3.985,0.83-4.018,0.83c3.89-0.287,3.89-0.287,4.146-0.287c3.952-0.064,3.952-0.064,3.952-0.192
			c-0.128-0.159-1.116-0.446-2.549-0.446C366.408,18.429,365.898,18.462,365.357,18.524 M344.857,17.696
			c0.446,0.223,0.829,0.256,7.27,0.733c4.367,0.32,6.12,0.574,8.16,0.893c-3.985-0.893-10.966-1.849-13.996-1.849
			C345.495,17.473,344.952,17.537,344.857,17.696 M363.985,17.888c-0.988,0.382-2.709,1.403-2.741,1.403
			c0.638-0.128,1.243-0.351,1.882-0.51c1.18-0.256,2.39-0.382,3.57-0.669l0.51-0.256c0.064-0.159-0.415-0.382-1.213-0.382
			C365.452,17.473,364.751,17.601,363.985,17.888 M368.129,17.059c-0.031,0-0.701,0.19-0.031,0.541
			c0.541,0.223,5.165,1.244,5.388,1.18c-0.031,0-2.965-1.498-4.431-1.721c-0.192-0.033-0.351-0.064-0.51-0.064
			C368.385,16.995,368.257,17.026,368.129,17.059 M362.551,17.282c-0.351,0.413-1.403,1.975-1.403,1.975l0.86-0.573
			c0.702-0.415,1.435-0.733,2.136-1.116l0.32-0.192l0.413-0.479c0-0.19-0.318-0.382-0.796-0.382
			C363.634,16.516,363.061,16.708,362.551,17.282 M344.634,16.452c-0.382,0-0.67,0.033-0.764,0.097
			c0.318,0.223,0.318,0.223,7.586,1.211c4.718,0.669,6.791,1.084,8.768,1.498c-4.826-1.325-12.807-2.806-15.505-2.806
			C344.689,16.452,344.661,16.452,344.634,16.452 M361.084,16.739c-0.031,0.83,0,1.658-0.064,2.487l0.033-0.031l0.413-0.733
			c0.287-0.415,0.575-0.83,0.829-1.277l0.223-0.446l-0.095-0.86c0-0.033-0.351-0.32-0.701-0.32
			C361.403,15.56,361.084,15.816,361.084,16.739 M343.295,15.496l0.031,0.097c0.446,0.159,0.446,0.159,7.683,1.562
			c4.879,0.924,7.175,1.531,9.214,2.072c-5.229-1.69-14.187-3.762-16.577-3.762C343.518,15.465,343.39,15.496,343.295,15.496
			 M364.846,15.306l-0.064,0.031c-0.287,0.097-0.351,0.638,0.415,0.989c0.764,0.287,3.475,0.51,3.57,0.382
			c-0.064-0.033-0.064-0.064-0.605-0.287l-1.308-0.541c-0.861-0.351-1.498-0.574-1.88-0.574
			C364.91,15.306,364.877,15.306,364.846,15.306 M359.587,16.262c0.828,1.626,0.828,1.626,1.339,2.9c0,0,0.064-2.167-0.223-3.059
			c-0.287-0.862-0.925-1.244-1.244-1.372c-0.064-0.031-0.128-0.031-0.192-0.031C358.725,14.7,359.236,15.624,359.587,16.262
			 M343.136,14.7c0.287,0.159,0.287,0.159,7.683,1.913c4.941,1.18,7.396,1.944,9.373,2.549c-5.739-2.103-14.761-4.526-16.738-4.526
			C343.295,14.636,343.2,14.667,343.136,14.7 M356.684,13.967c-0.382,0,0.287,0.733,1.372,1.913
			c1.593,1.657,1.913,2.103,2.741,3.252c0,0-0.861-2.2-1.977-3.603c-0.637-0.829-1.69-1.531-2.103-1.562H356.684 M343.326,13.967
			c0.223,0.095,0.223,0.095,7.524,2.198c4.941,1.404,7.493,2.328,9.373,2.966c-5.706-2.36-14.825-5.198-16.674-5.198
			C343.454,13.934,343.39,13.967,343.326,13.967 M360.51,13.711c0,0,0.734,1.084,1.659,1.467c0.892,0.287,1.849-0.095,1.849-0.095
			c0.318-0.159,0.031-0.287-0.83-0.605l-1.785-0.638c-0.446-0.159-0.734-0.254-0.828-0.254
			C360.479,13.584,360.479,13.615,360.51,13.711 M343.901,13.392c0.159,0.064,0.159,0.064,7.205,2.39
			c4.782,1.595,7.204,2.552,9.15,3.349c-5.644-2.646-14.442-5.739-16.227-5.739C343.996,13.392,343.933,13.392,343.901,13.392
			 M354.071,13.392c0.095,0.223,0.095,0.223,2.518,2.168c2.231,1.754,3.029,2.518,4.113,3.572c-1.659-2.518-5.516-5.772-6.472-5.772
			C354.166,13.36,354.102,13.36,354.071,13.392 M344.826,12.946c0.095,0.095,0.095,0.095,6.727,2.549
			c4.559,1.723,6.886,2.774,8.735,3.603c-5.483-2.87-13.963-6.152-15.335-6.152C344.888,12.946,344.857,12.946,344.826,12.946
			 M351.679,12.946c0.064,0.128,0.064,0.128,3.572,2.39c2.869,1.849,4.08,2.774,5.324,3.762c-2.614-2.741-7.683-6.152-8.799-6.152
			C351.743,12.946,351.711,12.946,351.679,12.946 M346.132,12.723c0.097,0.064,0.097,0.064,6.09,2.582
			c4.272,1.818,6.472,2.965,8.129,3.793c-3.698-2.2-11.253-5.865-14.122-6.44L346.132,12.723 M349.544,12.69
			c0.126,0.128,0.126,0.128,4.527,2.52c3.41,1.88,5.005,2.932,6.408,3.888c-2.741-2.263-8.736-6.057-10.872-6.44L349.544,12.69
			 M347.822,12.628c-0.064,0-0.095,0-0.128,0c0.128,0.062,0.128,0.062,5.357,2.582c3.857,1.88,5.803,2.996,7.365,3.857
			c-4.38-2.952-11.319-6.441-12.576-6.441C347.834,12.626,347.827,12.626,347.822,12.628 M355.633,11.99
			c0.064,0.064,0.095,0.095,0.446,0.318c2.519,1.659,2.519,1.659,2.997,1.818h0.605c0.128-0.064,0.51-0.351-0.033-0.734
			c-0.383-0.318-1.339-0.605-2.103-0.861l-1.116-0.351c-0.638-0.191-0.669-0.191-0.766-0.221L355.633,11.99 M351.616,11.097
			c0.956,0.446,1.626,0.797,2.39,1.211c1.244,0.638,1.562,0.797,1.944,0.925l0.384-0.064c0.095-0.159-0.223-0.734-1.467-1.308
			c-1.276-0.574-4.082-1.339-4.4-1.339C350.499,10.554,350.499,10.554,351.616,11.097 M345.239,9.312
			c0.064,0.031,0.064,0.031,2.041,0.829c1.403,0.574,2.582,1.115,3.251,1.37c1.467,0.67,1.88,0.861,2.327,0.956h0.256
			c0.064-0.254-1.116-1.115-2.582-1.688c-1.944-0.797-4.783-1.467-5.26-1.467H345.239 M344.315,9.025l0.383,0.064l-0.318-0.064
			C344.347,9.025,344.347,9.025,344.315,9.025 M344.315,9.025c-0.925-0.223-1.499-0.32-2.009-0.415L344.315,9.025 M342.306,8.61
			c-0.076-0.017-0.147-0.031-0.218-0.045L342.306,8.61 M342.088,8.565l-0.547-0.114C341.728,8.498,341.897,8.527,342.088,8.565
			 M340.361,8.451c0.095,0.064,0.095,0.064,2.965,1.085c1.818,0.637,3.029,1.083,4.431,1.626c1.467,0.572,1.849,0.7,2.233,0.797
			h0.062l0.064-0.064c-0.733-1.085-7.078-3.252-9.722-3.475L340.361,8.451"/>
	</g>
</g>
<rect x="134" fill="none" width="352" height="111"/>
<defs>
	<filter id="Adobe_OpacityMaskFilter" filterUnits="userSpaceOnUse" x="61.481" y="0.587" width="450.022" height="237.861">
		
			<feColorMatrix  type="matrix" values="-1 0 0 0 1  0 -1 0 0 1  0 0 -1 0 1  0 0 0 1 0" color-interpolation-filters="sRGB" result="source"/>
	</filter>
</defs>
<mask maskUnits="userSpaceOnUse" x="61.481" y="0.587" width="450.022" height="237.861" id="SVGID_3_">
	<g filter="url(#Adobe_OpacityMaskFilter)">
		<linearGradient id="SVGID_4_" gradientUnits="userSpaceOnUse" x1="31.026" y1="53" x2="501.026" y2="53">
			<stop  offset="0.2029" style="stop-color:#000000"/>
			<stop  offset="0.4817" style="stop-color:#FFFFFF"/>
		</linearGradient>
		<rect x="31.026" y="-5" fill="url(#SVGID_4_)" width="470" height="116"/>
	</g>
</mask>
<g mask="url(#SVGID_3_)">
	<g>
		
			<ellipse transform="matrix(0.9399 0.3415 -0.3415 0.9399 59.6261 -101.6633)" fill="none" stroke="#DA1E00" stroke-width="2" stroke-miterlimit="10" cx="318.526" cy="118.5" rx="202.691" ry="69.033"/>
		
			<ellipse transform="matrix(0.9399 0.3415 -0.3415 0.9399 59.3431 -99.7173)" fill="none" stroke="#DA1E00" stroke-width="1.8398" stroke-miterlimit="10" cx="312.858" cy="118.67" rx="207.961" ry="73.004"/>
		
			<ellipse transform="matrix(0.9399 0.3415 -0.3415 0.9399 59.0602 -97.7713)" fill="none" stroke="#DA1E00" stroke-width="1.6796" stroke-miterlimit="10" cx="307.19" cy="118.839" rx="213.23" ry="76.975"/>
		
			<ellipse transform="matrix(0.9399 0.3415 -0.3415 0.9399 58.7773 -95.8253)" fill="none" stroke="#DA1E00" stroke-width="1.5194" stroke-miterlimit="10" cx="301.522" cy="119.009" rx="218.499" ry="80.946"/>
		
			<ellipse transform="matrix(0.9399 0.3415 -0.3415 0.9399 58.4944 -93.8792)" fill="none" stroke="#DA1E00" stroke-width="1.3592" stroke-miterlimit="10" cx="295.854" cy="119.178" rx="223.768" ry="84.917"/>
		
			<ellipse transform="matrix(0.9399 0.3415 -0.3415 0.9399 58.2114 -91.9332)" fill="none" stroke="#DA1E00" stroke-width="1.199" stroke-miterlimit="10" cx="290.186" cy="119.348" rx="229.038" ry="88.888"/>
		
			<ellipse transform="matrix(0.9399 0.3415 -0.3415 0.9399 57.9285 -89.9872)" fill="none" stroke="#DA1E00" stroke-width="1.0388" stroke-miterlimit="10" cx="284.518" cy="119.517" rx="234.307" ry="92.859"/>
	</g>
</g>
</svg>
