<?xml version="1.0" encoding="utf-8"?>
<!-- Generator: Adobe Illustrator 17.0.1, SVG Export Plug-In . SVG Version: 6.00 Build 0)  -->
<!DOCTYPE svg PUBLIC "-//W3C//DTD SVG 1.1//EN" "http://www.w3.org/Graphics/SVG/1.1/DTD/svg11.dtd">
<svg version="1.1" id="Layer_1" xmlns="http://www.w3.org/2000/svg" xmlns:xlink="http://www.w3.org/1999/xlink" x="0px" y="0px"
	 width="29px" height="29px" viewBox="0 0 29 29" enable-background="new 0 0 29 29" xml:space="preserve">
<g>
	<path fill="#2AA5DD" d="M28.322,5.543c-1.03,0.462-2.137,0.774-3.299,0.914c1.186-0.719,2.097-1.856,2.526-3.212
		c-1.11,0.665-2.339,1.149-3.648,1.409C22.853,3.525,21.36,2.82,19.708,2.82c-3.172,0-5.745,2.6-5.745,5.806
		c0,0.455,0.051,0.898,0.149,1.323C9.338,9.707,5.105,7.395,2.272,3.883C1.777,4.74,1.494,5.738,1.494,6.802
		c0,2.014,1.014,3.792,2.556,4.833c-0.942-0.03-1.828-0.291-2.602-0.726c-0.001,0.024-0.001,0.049-0.001,0.073
		c0,2.813,1.98,5.16,4.608,5.693c-0.482,0.133-0.989,0.204-1.513,0.204c-0.37,0-0.73-0.037-1.081-0.104
		c0.731,2.307,2.853,3.986,5.366,4.032c-1.966,1.557-4.443,2.486-7.134,2.486c-0.464,0-0.921-0.028-1.37-0.081
		c2.542,1.647,5.562,2.609,8.806,2.609c10.566,0,16.344-8.848,16.344-16.521c0-0.252-0.006-0.502-0.017-0.751
		C26.578,7.729,27.552,6.707,28.322,5.543z"/>
</g>
</svg>
