<?xml version="1.0" encoding="utf-8"?>
<!-- Generator: Adobe Illustrator 17.0.1, SVG Export Plug-In . SVG Version: 6.00 Build 0)  -->
<!DOCTYPE svg PUBLIC "-//W3C//DTD SVG 1.1//EN" "http://www.w3.org/Graphics/SVG/1.1/DTD/svg11.dtd">
<svg version="1.1" id="Layer_1" xmlns="http://www.w3.org/2000/svg" xmlns:xlink="http://www.w3.org/1999/xlink" x="0px" y="0px"
	 width="35px" height="29px" viewBox="0 0 35 29" enable-background="new 0 0 35 29" xml:space="preserve">
<g>
	<path id="Triangle_1_" fill="#FFFFFF" d="M13.954,18.719l9.306-4.822l-9.306-4.856V18.719z"/>
	<path id="The_Sharpness_1_" opacity="0.12" fill-rule="evenodd" clip-rule="evenodd" fill="#420300" d="M13.954,9.042l8.161,5.45
		l1.145-0.594L13.954,9.042z"/>
	<g id="Lozenge_2_">
		<g>
			<linearGradient id="SVGID_1_" gradientUnits="userSpaceOnUse" x1="17.5117" y1="2.1392" x2="17.5117" y2="26.3634">
				<stop  offset="0" style="stop-color:#E12C27"/>
				<stop  offset="1" style="stop-color:#BA191D"/>
			</linearGradient>
			<path fill="url(#SVGID_1_)" d="M34.389,7.365c0,0-0.337-2.374-1.369-3.419c-1.31-1.372-2.778-1.379-3.451-1.459
				c-4.82-0.348-12.049-0.348-12.049-0.348h-0.015c0,0-7.229,0-12.049,0.348c-0.673,0.08-2.141,0.087-3.451,1.459
				C0.971,4.992,0.635,7.365,0.635,7.365s-0.344,2.787-0.344,5.574v2.613c0,2.787,0.344,5.574,0.344,5.574s0.336,2.373,1.369,3.419
				c1.31,1.372,3.031,1.328,3.798,1.472c2.755,0.264,11.71,0.346,11.71,0.346s7.237-0.011,12.057-0.359
				c0.673-0.08,2.141-0.087,3.451-1.459c1.033-1.045,1.369-3.419,1.369-3.419s0.344-2.787,0.344-5.574v-2.613
				C34.733,10.152,34.389,7.365,34.389,7.365z M13.956,18.719l-0.002-9.677l9.306,4.855L13.956,18.719z"/>
		</g>
	</g>
</g>
</svg>
